<?xml version="1.0" encoding="UTF-8" standalone="no"?>
<!-- Created with Inkscape (http://www.inkscape.org/) -->

<svg
   width="74.213432mm"
   height="74.262909mm"
   viewBox="0 0 74.213432 74.262909"
   version="1.1"
   id="svg5"
   inkscape:version="1.1 (c4e8f9ed74, 2021-05-24)"
   sodipodi:docname="icon.svg"
   xmlns:inkscape="http://www.inkscape.org/namespaces/inkscape"
   xmlns:sodipodi="http://sodipodi.sourceforge.net/DTD/sodipodi-0.dtd"
   xmlns:xlink="http://www.w3.org/1999/xlink"
   xmlns="http://www.w3.org/2000/svg"
   xmlns:svg="http://www.w3.org/2000/svg">
  <sodipodi:namedview
     id="namedview7"
     pagecolor="#ffffff"
     bordercolor="#666666"
     borderopacity="1.0"
     inkscape:pageshadow="2"
     inkscape:pageopacity="0.0"
     inkscape:pagecheckerboard="0"
     inkscape:document-units="mm"
     showgrid="false"
     inkscape:zoom="1.4142136"
     inkscape:cx="-65.407377"
     inkscape:cy="230.16326"
     inkscape:window-width="1920"
     inkscape:window-height="1049"
     inkscape:window-x="0"
     inkscape:window-y="0"
     inkscape:window-maximized="1"
     inkscape:current-layer="layer1"
     inkscape:snap-global="true"
     fit-margin-top="0"
     fit-margin-left="0"
     fit-margin-right="0"
     fit-margin-bottom="0" />
  <defs
     id="defs2">
    <linearGradient
       inkscape:collect="always"
       id="linearGradient18762">
      <stop
         style="stop-color:#1a1a1a;stop-opacity:1"
         offset="0"
         id="stop18758" />
      <stop
         style="stop-color:#828282;stop-opacity:0"
         offset="1"
         id="stop18760" />
    </linearGradient>
    <clipPath
       clipPathUnits="userSpaceOnUse"
       id="clipPath70590">
      <path
         style="color:#000000;fill:#cdd26a;stroke-width:1.01749;stroke-linecap:round;stroke-linejoin:bevel;-inkscape-stroke:none"
         d="m 67.621234,80.493641 h 32.02904 c 2.527726,0 4.562676,2.034953 4.562676,4.562673 v 32.029036 c 0,2.52772 -2.03495,4.56268 -4.562676,4.56268 h -32.02904 c -2.527721,0 -4.562673,-2.03496 -4.562673,-4.56268 V 85.056314 c 0,-2.52772 2.034952,-4.562673 4.562673,-4.562673 z"
         id="path70592" />
    </clipPath>
    <mask
       maskUnits="userSpaceOnUse"
       id="mask1190">
      <ellipse
         style="fill:#f0d9b5;stroke-width:1.07541;stroke-linecap:round;stroke-linejoin:bevel;stroke-opacity:0.66"
         id="ellipse1192"
         cx="83.622047"
         cy="90.938683"
         rx="24.74025"
         ry="20.235901" />
    </mask>
    <linearGradient
       inkscape:collect="always"
       xlink:href="#linearGradient18762"
       id="linearGradient15995"
       x1="74.889923"
       y1="74.979935"
       x2="77.038094"
       y2="74.979935"
       gradientUnits="userSpaceOnUse"
       gradientTransform="matrix(1.343897,0,0,0.9945785,-25.764198,0.28227583)" />
    <linearGradient
       inkscape:collect="always"
       xlink:href="#linearGradient18762"
       id="linearGradient42850"
       gradientUnits="userSpaceOnUse"
       gradientTransform="matrix(1.343897,0,0,0.9945785,-48.616546,-186.82249)"
       x1="74.889923"
       y1="74.979935"
       x2="77.038094"
       y2="74.979935" />
    <linearGradient
       inkscape:collect="always"
       xlink:href="#linearGradient18762"
       id="linearGradient42854"
       gradientUnits="userSpaceOnUse"
       gradientTransform="matrix(0.58313681,0,0,0.9945785,-178.7264,0.31788674)"
       x1="74.889923"
       y1="74.979935"
       x2="77.038094"
       y2="74.979935" />
    <linearGradient
       inkscape:collect="always"
       xlink:href="#linearGradient18762"
       id="linearGradient42858"
       gradientUnits="userSpaceOnUse"
       gradientTransform="matrix(0.58313681,0,0,0.9945785,-155.87404,-186.82247)"
       x1="74.889923"
       y1="74.979935"
       x2="77.038094"
       y2="74.979935" />
  </defs>
  <g
     inkscape:label="Layer 1"
     inkscape:groupmode="layer"
     id="layer1"
     transform="translate(-67.871839,-44.994753)">
    <g
       id="g70120"
       transform="matrix(1.8044955,0,0,1.8044955,-45.917051,-100.25566)"
       clip-path="url(#clipPath70590)">
      <path
         inkscape:connector-curvature="0"
         d="M 63.031142,80.493641 H 104.18553 V 121.64803 H 63.031142 Z"
         style="display:inline;fill:#0c0c0c;fill-opacity:1;fill-rule:evenodd;stroke:none;stroke-width:0.264583"
         id="path74735" />
      <path
         inkscape:connector-curvature="0"
         d="m 101.77259,80.493641 c 0,0.839161 -0.14185,2.025023 0.0331,3.1202 0.17991,1.125273 1.1294,2.069637 1.1294,2.945077 0,0.898954 -0.95372,1.616604 -1.13774,2.243698 -0.17082,0.58192 -0.0247,1.163902 -0.0247,1.979647 0,0.836414 0.46649,1.597488 0.57064,2.177222 0.11027,0.61314 -0.14155,1.045435 -0.14155,1.923688 0,0.878218 -0.5668,2.330053 -0.77129,3.464882 -0.19857,1.101561 -0.0802,1.886245 -0.0802,2.722795 0,0.83231 0.28744,2.10767 0.5295,3.38296 0.24824,1.30688 0.49639,2.61395 0.49639,3.49631 0,0.87527 -0.3345,1.60043 -0.44248,2.28011 -0.10332,0.64948 -0.20664,1.299 -0.20664,2.13843 0,0.84074 0.34911,1.66314 0.47185,2.53077 0.12627,0.89317 0.25274,1.7864 0.25274,2.66035 0,0.89962 -0.17578,1.51405 -0.35156,2.12851 -0.16368,0.57223 -0.32736,1.14459 -0.32736,1.95974 h -0.61734 c 0,-0.89962 0.17578,-1.51415 0.35153,-2.12858 0.16371,-0.57216 0.32739,-1.14452 0.32739,-1.95967 0,-0.84074 -0.1228,-1.70841 -0.24553,-2.57605 -0.12627,-0.89317 -0.25264,-1.78643 -0.25264,-2.66035 0,-0.87534 0.10808,-1.55512 0.21616,-2.2348 0.10322,-0.64952 0.38768,-1.25383 0.38768,-2.09319 0,-0.83238 -0.4233,-2.15295 -0.66546,-3.42824 -0.24815,-1.30697 -0.81316,-2.56864 -0.81316,-3.45102 0,-0.87835 -0.0217,-1.424817 0.18279,-2.559649 0.19847,-1.101492 1.03088,-2.746407 1.03088,-3.582755 0,-0.836647 -0.0138,-1.461757 -0.11803,-2.041591 -0.11023,-0.61314 -0.40161,-1.27172 -0.40161,-2.149872 0,-0.899088 0.18412,-1.526183 0.36814,-2.15328 0.17072,-0.581784 0.70379,-1.073314 0.70379,-1.888958 0,-0.839324 -0.5372,-2.025089 -0.71223,-3.120265 -0.17981,-1.125305 -0.3597,-2.250678 -0.3597,-3.126119 z"
         style="display:inline;fill:#d1d1b8;fill-opacity:0.5;fill-rule:nonzero;stroke:none;stroke-width:0.264583"
         id="path214" />
      <path
         inkscape:connector-curvature="0"
         d="m 99.737647,80.493641 c 0,0.823617 0.278703,2.021351 0.557343,3.218823 0.28708,1.233752 1.1175,2.241286 1.1175,3.132368 0,0.891381 -0.8458,1.634829 -0.96711,2.151758 -0.11298,0.481145 -0.452375,0.781214 -0.452375,1.604531 0,0.880304 0.134735,1.312699 0.08845,1.564019 -0.0404,0.218744 0.14559,0.437554 0.14559,1.272018 0,0.862971 -0.11177,2.365772 -0.22361,3.868606 -0.110438,1.486659 -0.221066,2.973556 -0.221066,3.825276 0,0.83886 0.182528,1.9646 0.364876,3.09017 0.18735,1.15537 0.37476,2.31084 0.37476,3.18668 0,0.86323 -0.0769,1.63039 -0.15358,2.39745 -0.0743,0.74289 -0.14867,1.48584 -0.14867,2.3373 0,0.86416 -0.17777,1.8238 -0.12912,2.73814 0.0498,0.93675 0.59756,1.87368 0.59756,2.72428 0,0.89955 -0.67366,1.46877 -0.849372,2.08323 -0.163711,0.57223 -0.101071,1.14459 -0.101071,1.95973 h -0.617238 c 0,-0.89961 0.175683,-1.51414 0.351464,-2.12857 0.16368,-0.57216 0.327356,-1.14452 0.327356,-1.95967 0,-0.86409 -0.04855,-1.77853 -0.0972,-2.69286 -0.04978,-0.93686 -0.09968,-1.87371 -0.09968,-2.72428 0,-0.86327 0.0768,-1.63043 0.153591,-2.39749 0.07434,-0.74288 0.37489,-1.48583 0.37489,-2.33726 0,-0.8389 -0.589867,-1.96454 -0.772297,-3.09021 -0.187325,-1.15527 -0.329438,-2.31073 -0.329438,-3.18664 0,-0.86307 0.428691,-2.275315 0.540544,-3.778149 0.11053,-1.48676 0.04012,-3.064105 0.04012,-3.915733 0,-0.880303 0.04633,-1.131755 0.09274,-1.383011 0.04031,-0.21871 -0.326829,-0.618561 -0.326829,-1.453026 0,-0.891479 0.52887,-1.227367 0.65017,-1.744297 0.11297,-0.481145 0.45237,-1.233852 0.45237,-2.057268 0,-0.823682 -0.504979,-1.749755 -0.783683,-2.947228 -0.287073,-1.233818 -0.574114,-2.467668 -0.574114,-3.358687 z"
         style="display:inline;fill:#d1d1b8;fill-opacity:0.5;fill-rule:nonzero;stroke:none;stroke-width:0.264583"
         id="path216" />
      <path
         inkscape:connector-curvature="0"
         d="m 98.668797,80.493641 c 0,0.838994 0.190598,1.967543 0.381,3.095924 0.194437,1.152293 0.162652,2.304653 0.162652,3.180358 0,0.896837 -0.108942,1.446874 -0.308535,2.042253 -0.185442,0.55331 -0.325671,1.152093 -0.325671,1.970087 0,0.794708 0.198372,1.001811 0.306091,1.208815 0.136888,0.262962 0.273844,0.526024 0.273844,1.44608 0,0.873951 -0.218149,2.318708 -0.436298,3.808677 -0.215074,1.46943 -0.566076,2.984165 -0.566076,3.825015 0,0.83651 0.378553,2.11452 0.621075,3.39242 0.247716,1.30427 0.585954,2.47296 0.585954,3.35111 0,0.90038 -0.249007,1.48104 -0.40736,1.92581 -0.143238,0.40236 -0.37723,0.80493 -0.37723,1.61925 0,0.83896 -0.01286,1.99575 0.155443,3.10723 0.171185,1.13129 0.840351,2.21741 0.840351,3.09311 0,0.89261 -0.401042,1.50366 -0.5758,2.11445 -0.164703,0.5757 -0.32944,1.1516 -0.32944,1.9738 h -0.514416 c 0,-0.89258 0.174757,-1.50357 0.349514,-2.11452 0.164703,-0.57574 0.329441,-1.15163 0.329441,-1.97373 0,-0.83906 -0.168275,-1.95057 -0.336484,-3.06196 -0.171286,-1.13139 -0.342471,-2.26274 -0.342471,-3.13838 0,-0.90058 -0.06787,-1.48117 0.09049,-1.9259 0.143338,-0.40247 0.512996,-0.6692 0.512996,-1.48342 0,-0.83662 -0.242724,-2.11452 -0.485347,-3.39243 -0.247584,-1.30436 -0.495265,-2.60879 -0.495265,-3.48684 0,-0.87412 0.535019,-2.27363 0.75307,-3.763599 0.215172,-1.46933 0.11344,-3.029445 0.11344,-3.870093 0,-0.794908 -0.107818,-1.00191 -0.215604,-1.208915 -0.136789,-0.262962 -0.273777,-0.526124 -0.273777,-1.44598 0,-0.896906 0.199596,-1.492218 0.399092,-2.087628 0.185438,-0.55331 0.370977,-1.106721 0.370977,-1.924712 0,-0.839126 -0.190597,-1.967508 -0.381,-3.09599 -0.194534,-1.152292 -0.389069,-2.304653 -0.389069,-3.180292 z m -0.329438,25.830939 c 0,0.47665 -0.13312,1.28813 -0.276458,1.66651 -0.07352,0.19417 -0.143338,0.95158 -0.242358,0.87386 -0.152898,-0.11983 -0.273844,-0.82593 -0.342006,-1.10355 -0.08903,-0.36271 -0.218713,-0.89082 -0.218713,-1.43682 0,-0.7317 0.06592,-2.57181 0.351203,-3.12982 0.262401,0.56813 0.728332,2.41217 0.728332,3.12982 z m -0.33741,0 c 0,-0.40987 -0.09036,-0.73471 -0.18157,-0.97284 -0.107919,0.2371 -0.223145,0.56955 -0.223145,0.97284 0,0.43435 0.09899,0.87534 0.17833,1.20161 0.112019,-0.34856 0.226385,-0.85603 0.226385,-1.20161"
         style="display:inline;fill:#bdbda6;fill-opacity:0.5;fill-rule:nonzero;stroke:none;stroke-width:0.264583"
         id="path218" />
      <path
         inkscape:connector-curvature="0"
         d="m 97.702803,80.493641 c 0,0.845278 0.116054,1.884495 0.231939,2.923614 0.118401,1.060879 0.236903,2.12176 0.236903,2.991181 0,0.883113 -0.164902,1.154144 -0.284427,1.832536 -0.114864,0.651007 -0.184415,1.709605 -0.184415,2.541291 0,0.782241 0.104907,0.983787 0.209714,1.185069 0.139766,0.268618 0.279665,0.537303 0.279665,1.469826 0,0.877226 -0.218446,2.369344 -0.436893,3.861361 -0.214776,1.467282 -0.429649,2.934761 -0.429649,3.772331 0,0.86532 -0.328878,2.25928 -0.431237,3.24581 -0.100147,0.96308 0.02617,1.51884 0.02617,2.36822 0,0.82004 0.506976,1.58475 0.697212,2.30419 0.200917,0.76041 0.08503,1.47561 0.08503,2.37037 0,0.83542 0.16801,1.94495 0.335822,3.05438 0.171551,1.13334 0.343099,2.26679 0.343099,3.14596 0,0.89962 -0.175781,1.51405 -0.351465,2.12851 -0.163679,0.57223 -0.327456,1.14459 -0.327456,1.95974 h -0.617238 c 0,-0.89962 0.175781,-1.51415 0.351464,-2.12858 0.163679,-0.57216 0.553773,-1.00876 0.553773,-1.82384 0,-0.83548 -0.16801,-2.62404 -0.33592,-3.7335 -0.17145,-1.13334 -0.569317,-1.7235 -0.569317,-2.60267 0,-0.82011 0.126634,-1.49437 -0.0634,-2.2137 -0.200982,-0.76042 -0.718872,-1.56621 -0.718872,-2.46086 0,-0.86542 -0.485974,-1.08235 -0.293058,-2.65735 0.100044,-1.32526 0.698068,-2.1074 0.698068,-2.95668 0,-0.87733 0.354378,-2.233678 0.572725,-3.72573 0.214776,-1.467281 -0.06826,-2.617787 -0.06826,-3.455259 0,-0.782342 0.07613,-1.34597 -0.02868,-1.547416 -0.139797,-0.268587 -0.09852,-0.627856 -0.09852,-1.560182 0,-0.883245 0.210177,-2.240724 0.329702,-2.919015 0.114763,-0.651108 -0.22311,-0.62316 -0.22311,-1.454812 0,-0.845444 0.246163,-1.884561 0.130207,-2.92368 -0.118398,-1.060879 -0.236802,-2.12176 -0.236802,-2.991115 h 0.617241 z"
         style="display:inline;fill:#bdbda6;fill-opacity:0.5;fill-rule:nonzero;stroke:none;stroke-width:0.264583"
         id="path220" />
      <path
         inkscape:connector-curvature="0"
         d="m 78.346614,89.036542 0.02529,0.06975 c 0.219107,0.6013 0.616411,1.691613 0.616411,3.288837 0,1.066204 -0.321466,2.698022 -0.575334,3.536984 -0.05831,0.192582 -0.11589,0.350838 -0.168177,0.459383 -0.164076,0.340021 -0.365818,0.424688 -0.601036,0.1905 -0.06122,-0.06092 -0.10183,-0.150085 -0.117938,-0.26961 -0.02207,-0.162754 -0.06836,-0.4024 -0.12356,-0.68815 -0.158552,-0.820208 -0.389366,-2.01467 -0.389366,-3.229107 0,-1.533393 0.461367,-2.648445 0.702006,-3.230065 0.0167,-0.04032 0.03291,-0.07951 0.05652,-0.138179 l 0.300466,-0.744934 0.274703,0.754591 z m 0.02437,3.358587 c 0,-0.991889 -0.16424,-1.775619 -0.334798,-2.355485 -0.200718,0.578543 -0.405937,1.376825 -0.405937,2.355485 0,1.04117 0.179917,2.079823 0.327853,2.856476 0.207367,-0.843293 0.412882,-2.032132 0.412882,-2.856476"
         style="display:inline;fill:#bdbda6;fill-opacity:0.5;fill-rule:nonzero;stroke:none;stroke-width:0.264583"
         id="path222" />
      <path
         inkscape:connector-curvature="0"
         d="m 93.757601,111.67426 c 0,0.63966 -0.326332,1.60724 -0.588632,2.11518 -0.402862,0.78039 -0.619059,2.05677 -0.663112,2.03147 -0.157956,-0.0909 -0.163975,-1.74159 -0.323418,-2.21814 -0.162952,-0.48683 -0.400217,-1.19568 -0.400217,-1.92851 0,-0.81274 0.346869,-1.41797 0.791038,-2.05456 l 0.468114,-2.17256 c 0.03215,1.54332 0.716227,2.93006 0.716227,4.22712 z m -0.617339,0 c 0,-0.55024 -0.165365,-0.98617 -0.332348,-1.30575 -0.197512,0.31809 -0.408353,0.76434 -0.408353,1.30575 0,0.58301 0.122801,1.83214 0.267824,2.27006 0.205053,-0.46802 0.472877,-1.80628 0.472877,-2.27006"
         style="display:inline;fill:#d1d1b8;fill-opacity:0.5;fill-rule:nonzero;stroke:none;stroke-width:0.264583"
         id="path224" />
      <path
         inkscape:connector-curvature="0"
         d="m 78.657301,80.493641 c 0,0.84422 0.05642,1.480873 0.112678,2.117461 0.05758,0.650049 0.115129,1.300131 0.115129,2.170575 0,0.808138 0.330663,1.779389 0.661326,2.750542 0.347432,1.020763 0.69506,2.041592 0.69506,2.948252 0,1.043517 -0.08344,3.042479 -0.416819,4.931074 -0.216562,1.226609 -0.540576,2.411908 -1.018876,3.274484 -0.01283,0.346305 -0.108183,0.548812 -0.219737,0.785812 -0.137252,0.291769 -0.02299,0.763129 -0.02299,1.712149 0,0.83231 -0.04078,1.99453 0.201382,3.26982 0.248145,1.30688 0.49639,2.61395 0.49639,3.49631 0,0.9091 -0.159906,1.35817 -0.319847,1.80713 -0.141851,0.39817 -0.283699,0.7965 -0.283699,1.60219 0,0.83542 0.394295,2.00147 0.562205,3.1109 0.171485,1.13335 0.56945,2.38003 0.56945,3.25921 0,0.89955 -0.628484,1.34428 -0.804201,1.95874 -0.163677,0.57223 -0.327454,1.14459 -0.327454,1.95974 h -0.617241 c 0,-0.89962 0.175683,-1.51415 0.351467,-2.12858 0.163677,-0.57216 0.78009,-0.9182 0.78009,-1.73325 0,-0.83552 -0.620647,-2.17144 -0.788525,-3.2808 -0.171482,-1.13334 -0.569449,-2.04037 -0.569449,-2.91965 0,-0.9091 0.38626,-1.58448 0.5462,-2.03345 0.141817,-0.39823 0.566605,-0.68342 0.566605,-1.48901 0,-0.83231 -0.242226,-2.27747 -0.484386,-3.55276 -0.248081,-1.30687 -0.779264,-2.55733 -0.779264,-3.43968 0,-1.083865 0.201846,-1.512657 0.366184,-1.861774 0.08728,-0.185439 0.160967,-0.341908 0.160967,-0.604142 v -0.07997 l 0.0422,-0.07313 c 0.458721,-0.795073 0.772583,-1.944291 0.984845,-3.146425 0.325668,-1.845006 0.40716,-3.802327 0.40716,-4.824942 0,-0.808037 -0.330663,-1.779389 -0.661326,-2.750542 -0.34743,-1.020728 -0.695061,-2.041591 -0.695061,-2.948252 0,-0.844317 -0.05636,-1.48097 -0.112678,-2.117526 -0.05747,-0.649949 -0.115022,-1.300128 -0.115022,-2.17051 z"
         style="display:inline;fill:#d1d1b8;fill-opacity:0.5;fill-rule:nonzero;stroke:none;stroke-width:0.264583"
         id="path226" />
      <path
         inkscape:connector-curvature="0"
         d="m 83.348562,80.493641 c 0,0.85325 0.05616,1.413405 0.112316,1.973263 0.05775,0.575998 0.454951,0.472977 0.454951,1.334526 0,0.870842 -0.458356,2.269596 -0.577022,2.989229 -0.115591,0.700121 -0.23128,1.400439 -0.23128,2.244261 0,0.831123 0.23935,1.715659 0.478499,2.599995 0.246361,0.911061 0.662617,1.822317 0.662617,2.705994 0,0.890818 -0.385498,2.13092 -0.770898,3.201194 -0.372666,1.034618 -0.915093,1.899541 -0.915093,2.723517 0,0.84217 -0.04471,2.05959 -0.08936,3.27713 -0.04385,1.19493 -0.08774,2.39015 -0.08774,3.26268 0,0.82444 0.461534,1.40457 0.696648,2.09785 0.246295,0.72638 0.266369,1.5659 0.266369,2.45616 0,0.82537 0.199761,2.14967 0.173337,3.30401 -0.02559,1.11856 -0.617175,1.78445 -0.617175,2.67368 0,0.86681 0.534955,1.77552 0.560551,2.34458 0.02653,0.58744 -0.116713,1.11826 -0.116713,1.96631 H 82.93701 c 0,-0.8668 0.20062,-1.26626 0.175022,-1.83544 -0.02646,-0.58735 -1.071563,-1.28803 -1.071563,-2.13589 0,-0.82566 0.818819,-2.03673 0.845243,-3.19107 0.02561,-1.11843 -0.288197,-1.55793 -0.288197,-2.44716 0,-0.82451 0.104346,-2.19694 -0.13077,-2.89011 -0.246359,-0.72639 -0.492752,-1.45276 -0.492752,-2.34292 0,-0.84234 -0.181605,-1.83346 -0.136957,-3.05081 0.04376,-1.19503 0.314063,-2.61647 0.314063,-3.489 0,-0.890915 0.385498,-1.961253 0.770994,-3.031492 0.372567,-1.034622 0.745299,-2.069341 0.745299,-2.893219 0,-0.831189 -0.239249,-1.715624 -0.478499,-2.599963 -0.246361,-0.911058 -0.719238,-1.595998 -0.719238,-2.479608 0,-0.870943 0.345183,-1.81696 0.463947,-2.536592 0.115525,-0.70022 0.570772,-2.079461 0.570772,-2.923316 0,-0.853413 -0.395716,-0.734351 -0.451874,-1.294309 -0.05765,-0.575998 -0.11549,-1.152094 -0.11549,-2.01348 z"
         style="display:inline;fill:#d1d1b8;fill-opacity:0.5;fill-rule:nonzero;stroke:none;stroke-width:0.264583"
         id="path228" />
      <path
         inkscape:connector-curvature="0"
         d="m 76.320665,80.493641 c 0,0.823617 0.6183,1.96473 0.896906,3.1623 0.287073,1.233752 -0.04829,2.524125 -0.04829,3.415308 0,0.936858 -0.02051,1.472142 -0.323784,2.007362 -0.262335,0.462854 -0.524836,0.925809 -0.524836,1.703652 0,0.856126 0.0091,2.186615 0.09975,3.525375 0.09009,1.332441 0.259789,2.681221 0.579009,3.592478 l 0.0118,0.03367 0.0038,0.03383 c 0.133152,1.175245 0.133152,1.854001 -0.148762,2.530214 -0.207005,0.49652 -0.696484,0.99169 -0.696484,1.70478 0,0.83277 0.18564,1.82492 0.371179,2.81708 0.191624,1.0242 0.383249,2.04863 0.383249,2.93043 0,0.9091 0.122997,1.35817 -0.03694,1.80713 -0.141848,0.39817 -0.566637,0.7965 -0.566637,1.60219 0,0.83542 -0.511011,1.77515 -0.343199,2.88458 0.171551,1.13335 1.588029,2.54973 1.588029,3.429 0,0.89955 -0.741659,1.40081 -0.917342,2.01527 -0.163711,0.57223 -0.327488,1.14459 -0.327488,1.95974 h -0.617241 c 0,-0.89962 0.175784,-1.51415 0.351467,-2.12858 0.163677,-0.57216 0.327388,-1.14452 0.327388,-1.95967 0,-0.83549 -0.733788,-2.00157 -0.9017,-3.111 -0.171482,-1.13334 0.222845,-2.21017 0.222845,-3.08934 0,-0.90918 0.44278,-1.35817 0.602721,-1.80714 0.141851,-0.39823 5.29e-4,-0.79659 5.29e-4,-1.60218 0,-0.83278 -0.751515,-1.88155 -0.937054,-2.87371 -0.191624,-1.02423 0.182727,-1.99192 0.182727,-2.8738 0,-0.83384 0.230518,-1.38669 0.461732,-1.94112 0.248608,-0.59654 0.498176,-1.19539 0.391848,-2.193928 -0.333079,-0.971616 -0.565216,-2.41472 -0.657259,-3.775506 -0.09269,-1.370904 -0.328274,-2.707878 -0.328274,-3.566451 0,-0.937022 0.586316,-1.415619 0.889696,-1.950839 0.2623,-0.462822 0.5247,-0.925875 0.5247,-1.70352 0,-0.82378 -0.278606,-2.021448 -0.557345,-3.218921 -0.287038,-1.233818 -0.574111,-2.467668 -0.574111,-3.358687 h 0.617238 z"
         style="display:inline;fill:#bdbda6;fill-opacity:0.5;fill-rule:nonzero;stroke:none;stroke-width:0.264583"
         id="path230" />
      <path
         inkscape:connector-curvature="0"
         d="m 91.220347,80.493641 c 0,0.823617 -0.6267,2.134526 -0.348093,3.331999 0.287073,1.233752 1.479682,2.354426 1.479682,3.245609 0,0.902891 0.184878,1.394918 0.03036,1.88681 -0.140063,0.445889 -0.619686,0.891844 -0.619686,1.70362 0,0.847889 -0.240175,1.181727 -0.253968,1.458746 -0.01267,0.253241 0.201083,0.449924 0.201083,1.316733 0,0.854703 0.325403,4.490906 0.424524,5.976739 0.100211,1.503663 -0.421878,0.857153 -0.421878,1.717143 0,0.85282 0.324279,2.13965 0.252545,3.42646 -0.07048,1.26523 -0.141089,2.5307 -0.141089,3.39262 0,0.9091 -0.362149,1.2137 -0.521991,1.66267 -0.141849,0.39823 -0.08149,0.94096 -0.08149,1.74665 0,0.83542 0.167912,1.94495 0.335822,3.05438 0.171583,1.13334 0.343133,2.26679 0.343133,3.14596 0,0.89962 -0.175784,1.51405 -0.351467,2.12851 -0.163775,0.57223 -0.327486,1.14459 -0.327486,1.95974 h -0.617339 c 0,-0.89962 0.175782,-1.51415 0.351566,-2.12858 0.16371,-0.57216 0.587441,-1.31786 0.587441,-2.133 0,-0.83552 -0.427964,-1.77169 -0.595876,-2.88105 -0.171548,-1.13334 -0.747546,-2.06454 -0.747546,-2.94375 0,-0.90918 0.564356,-1.56038 0.724297,-2.00935 0.14175,-0.39823 0.485907,-0.73882 0.485907,-1.54434 0,-0.85292 -0.130506,-2.1975 -0.05877,-3.4842 0.07048,-1.26537 -0.594585,-2.19124 -0.594585,-3.05316 0,-0.85483 0.862907,-0.52999 0.763887,-2.015727 -0.100312,-1.503658 -0.42694,-5.157753 -0.42694,-6.017715 0,-0.847957 -0.212527,-1.125108 -0.198636,-1.402225 0.01254,-0.253108 0.251521,-0.506346 0.251521,-1.373254 0,-0.90289 0.607317,-1.338363 0.761899,-1.830289 0.139965,-0.445855 -0.172574,-0.948365 -0.172574,-1.760141 0,-0.82378 -0.901136,-2.021448 -1.179843,-3.218921 -0.287073,-1.233818 0.04825,-2.467668 0.04825,-3.358687 z"
         style="display:inline;fill:#d1d1b8;fill-opacity:0.5;fill-rule:nonzero;stroke:none;stroke-width:0.264583"
         id="path232" />
      <path
         inkscape:connector-curvature="0"
         d="m 74.548886,80.493641 c 0,0.823617 -0.284991,2.002235 -0.0065,3.199707 0.287139,1.23385 1.138007,2.486718 1.138007,3.377901 0,0.936858 -0.529762,1.528696 -0.83304,2.063917 -0.262401,0.46292 -0.298517,0.869254 -0.298517,1.647097 0,0.837174 0.12065,1.654207 0.241036,2.471142 0.124121,0.841407 0.587904,1.852679 0.587904,2.730201 0,0.890323 -0.560983,1.625799 -0.782442,2.531039 -0.211764,0.865783 -0.649949,1.844905 -0.649949,2.669345 0,0.83231 0.01585,2.16423 0.257906,3.43962 0.342931,1.40153 1.005845,2.50094 0.949126,3.32651 0,0.9091 -0.15994,1.35817 -0.319881,1.80713 -0.141751,0.39817 -0.2837,0.7965 -0.2837,1.60219 0,0.83542 0.168011,1.94495 0.335823,3.05438 0.171548,1.13334 0.62607,2.32341 0.62607,3.20258 0,0.89955 -0.458721,1.45743 -0.634405,2.07189 -0.16371,0.57223 -0.327488,1.14459 -0.327488,1.95974 h -0.617241 c 0,-0.89962 0.175784,-1.51415 0.351467,-2.12858 0.163677,-0.57216 0.497153,-1.088 0.497153,-1.90305 0,-0.83549 -0.337675,-2.00164 -0.505587,-3.111 -0.171482,-1.13334 -0.739212,-2.21017 -0.739212,-3.08944 0,-0.90908 0.55612,-1.41469 0.715963,-1.86366 0.141848,-0.39823 0.453461,-0.79659 0.453461,-1.60218 0,-0.83242 -0.69496,-1.88136 -0.937022,-3.15665 -0.248139,-1.30688 -0.496419,-2.72709 -0.496419,-3.60948 0,-0.89042 0.504494,-1.908835 0.725919,-2.814072 0.211799,-0.865783 0.423661,-1.731764 0.423661,-2.556108 0,-0.837372 -0.120647,-1.654307 -0.241133,-2.47124 -0.124124,-0.841409 -0.248245,-1.682917 -0.248245,-2.560307 0,-0.937056 0.303376,-1.472274 0.606755,-2.007494 0.262303,-0.462822 0.524703,-0.925875 0.524703,-1.70352 0,-0.82378 -0.654944,-1.974387 -0.933648,-3.171857 -0.287076,-1.233818 -0.19781,-2.514732 -0.19781,-3.405751 z"
         style="display:inline;fill:#d1d1b8;fill-opacity:0.5;fill-rule:nonzero;stroke:none;stroke-width:0.264583"
         id="path234" />
      <path
         inkscape:connector-curvature="0"
         d="m 95.314343,80.493641 c 0,0.834959 0.280128,2.038615 0.560158,3.242173 0.285649,1.227733 0.571399,2.455598 0.571399,3.335435 0,0.9104 -0.29663,1.433547 -0.593064,1.956761 -0.269147,0.474927 -0.538493,0.949854 -0.538493,1.754253 0,0.807178 0.110697,1.019903 0.221425,1.232527 0.133879,0.25744 0.267922,0.514781 0.267922,1.422368 0,0.87048 0.07107,2.474151 -0.146809,3.96207 -0.215339,1.471414 -0.950815,2.856172 -0.950815,3.700492 0,0.86757 0.626732,1.99857 0.67568,3.12956 0.04978,1.14994 -0.247121,2.27109 -0.247121,3.11841 0,0.85246 0.420092,1.39274 0.464608,1.96162 0.04528,0.57947 -0.371541,1.47684 -0.371541,2.33899 0,0.84279 0.255191,1.66743 0.423664,2.7807 0.171022,1.12941 0.341908,2.25901 0.341908,3.13078 0,0.88556 -0.173699,1.49308 -0.34743,2.10036 -0.165761,0.57931 -0.331491,1.15868 -0.331491,1.98789 h -0.411559 c 0,-0.88557 0.173799,-1.49305 0.34753,-2.10037 0.165727,-0.57937 0.446982,-1.07202 0.446982,-1.90116 0,-0.8429 -0.630735,-1.66744 -0.799306,-2.7808 -0.170921,-1.12941 0.0048,-2.63439 0.0048,-3.50626 0,-0.85266 -0.04455,-1.42171 -0.089,-1.9907 -0.04538,-0.57946 -0.09072,-1.15903 -0.09072,-2.02105 0,-0.86757 0.211103,-1.88307 0.162092,-3.01406 -0.04971,-1.14995 -0.59065,-2.27119 -0.59065,-3.11832 0,-0.87064 0.448966,-2.50322 0.66685,-3.991139 0.215336,-1.471379 0.430773,-2.942894 0.430773,-3.787013 0,-0.807376 -0.110693,-1.020003 -0.221324,-1.232627 -0.133977,-0.257342 -0.470265,-0.688216 -0.470265,-1.595636 0,-0.910497 0.49884,-1.260377 0.795372,-1.78349 0.269179,-0.474927 0.68289,-0.89221 0.68289,-1.696411 0,-0.835025 -0.424492,-2.096426 -0.70462,-3.299981 -0.285644,-1.227767 -0.571394,-2.455698 -0.571394,-3.335372 z"
         style="display:inline;fill:#d1d1b8;fill-opacity:0.5;fill-rule:nonzero;stroke:none;stroke-width:0.264583"
         id="path236" />
      <path
         inkscape:connector-curvature="0"
         d="m 73.531428,80.493641 c 0,0.823617 -0.850236,2.303563 -0.571598,3.501099 0.287073,1.233752 1.703157,2.185326 1.703157,3.076509 0,0.936858 -0.303379,1.472142 -0.606755,2.007362 -0.262303,0.462854 -0.524804,0.925809 -0.524804,1.703652 0,0.832776 -0.01969,1.396206 -0.03939,1.95947 -0.01855,0.529201 -0.03711,1.058434 -0.03711,1.940322 h -0.0011 c 0,0.534096 0.195361,1.423127 0.0299,2.289836 -0.261837,1.370642 -0.934111,2.978547 -0.934111,5.079569 0.0013,0 0.649782,2.98989 0.697211,3.17467 0.288261,1.12369 0.43557,2.05932 0.43557,2.9503 0,0.90911 -0.15994,1.35818 -0.319881,1.80714 -0.14175,0.39813 -0.283601,0.7965 -0.283601,1.60218 0,0.81985 0.51263,1.95835 0.790045,3.00273 0.288264,1.08525 0.247386,1.98232 0.247386,2.87728 0,1.38112 -0.08176,1.67689 -0.25744,2.22253 -0.163679,0.57223 -0.327453,1.14459 -0.327453,1.95974 h -0.617241 c 0,-0.89962 0.175783,-1.51415 0.351533,-2.12858 0.16361,-0.57216 0.280326,-0.9093 0.280326,-1.72445 0,-0.81995 -0.465667,-2.00551 -0.743051,-3.04979 -0.288295,-1.08525 -0.341444,-2.2647 -0.341444,-3.15946 0,-0.9092 0.15994,-1.35817 0.31978,-1.80713 0.141851,-0.39823 0.2837,-0.7966 0.2837,-1.60219 0,-0.82378 -0.512728,-1.57592 -0.790144,-2.65724 -0.301855,-1.17703 -0.341807,-2.27026 -0.34022,-3.46773 0,-2.166176 0.348488,-3.99084 0.614429,-5.383474 0.160237,-0.838796 0.289719,-1.51709 0.289719,-1.985931 h -0.0011 c 0,-0.832975 0.01969,-1.396304 0.03946,-1.959571 0.01844,-0.529198 -0.386358,-1.058333 -0.386358,-1.940221 0,-0.937056 0.726744,-1.472274 1.030121,-2.007494 0.262334,-0.462822 0.712986,-0.878814 0.712986,-1.656556 0,-0.82368 -1.26656,-1.833198 -1.545198,-3.030636 -0.286909,-1.233852 0.225623,-2.702917 0.225623,-3.593936 h 0.617238 z"
         style="display:inline;fill:#d1d1b8;fill-opacity:0.5;fill-rule:nonzero;stroke:none;stroke-width:0.264583"
         id="path238" />
      <path
         inkscape:connector-curvature="0"
         d="m 86.440152,80.493641 c 0,0.830628 0.219639,1.970551 0.439209,3.110344 0.225657,1.171046 0.564454,1.832835 0.564454,2.716972 0,0.913045 -0.403852,1.387972 -0.637842,1.976075 -0.211238,0.530521 -0.761936,1.626923 -0.761936,2.428576 0,0.847063 0.441954,1.32338 0.487693,1.743109 0.04829,0.441952 0.09658,0.883973 0.09658,1.75164 0,0.869058 -0.538691,2.390412 -0.681204,3.685283 -0.140131,1.272844 0.115888,2.31947 0.115888,3.16521 0,0.87825 -0.22483,2.12576 -0.449527,3.3734 -0.21871,1.21408 -0.437521,2.42832 -0.437521,3.26493 0,0.79924 0.198536,1.28382 0.397105,1.76841 0.222647,0.54339 0.445329,1.08684 0.445329,2.00233 0,1.1936 -0.392642,2.27522 -0.389171,3.24346 0.0046,1.30367 0.744935,2.65807 0.744935,3.18694 0,0.83437 -0.241134,1.19661 -0.142775,1.72846 0.104344,0.56439 0.208788,1.12884 0.208788,2.00925 h -0.617339 c 0,-0.83447 -0.09846,-1.36641 -0.196784,-1.89836 -0.104343,-0.56425 -0.208788,-1.12874 -0.208788,-2.00914 0,-1.18593 -0.399555,-1.9349 -0.403026,-2.904 -0.0046,-1.30453 0.386887,-2.83558 0.386887,-3.35661 0,-0.79934 -0.198636,-1.28392 -0.397108,-1.76841 -0.222745,-0.54348 -0.445426,-1.08694 -0.445426,-2.00233 0,-0.87835 0.22483,-2.12596 0.449559,-3.3735 0.218712,-1.21414 0.154583,-2.48504 0.154583,-3.32145 0,-0.86906 0.425516,-2.107507 0.568028,-3.402378 0.140063,-1.272844 0.280226,-2.545786 0.280226,-3.391495 0,-0.84713 -0.441952,-1.32338 -0.487791,-1.743107 -0.04819,-0.441955 -0.09647,-0.883973 -0.09647,-1.751642 0,-0.913109 0.23419,-1.501211 0.46828,-2.089282 0.211037,-0.530556 0.818454,-1.004557 0.818454,-1.806112 0,-0.830726 -0.219768,-1.970617 -0.439306,-3.110442 -0.225592,-1.171011 -0.451313,-2.342158 -0.451313,-3.226131 z"
         style="display:inline;fill:#bdbda6;fill-opacity:0.5;fill-rule:nonzero;stroke:none;stroke-width:0.264583"
         id="path240" />
      <path
         inkscape:connector-curvature="0"
         d="m 71.496684,80.493641 c 0,0.823617 -0.285848,2.303563 -0.0072,3.501099 0.287073,1.233752 1.1387,2.185326 1.1387,3.076509 0,0.936858 -0.303379,1.472142 -0.606756,2.007362 -0.262302,0.462854 -0.524703,0.925809 -0.524703,1.703652 0,0.782241 0.10481,0.983787 0.209616,1.185069 0.139767,0.268618 0.609005,0.584364 0.609005,1.516888 0,0.877128 -0.547785,2.322282 -0.766233,3.814299 -0.214776,1.467282 -0.429649,2.934761 -0.429649,3.772331 0,0.83231 0.242258,2.10767 0.48432,3.38296 0.248245,1.30688 0.49639,2.61395 0.49639,3.49631 0,0.9091 -0.159941,1.35817 -0.319847,1.80713 -0.141751,0.39817 -0.707001,0.70247 -0.707001,1.50806 0,0.83549 0.591312,2.03908 0.75919,3.14851 0.171482,1.13334 1.095671,2.31385 1.095671,3.19303 0,0.89951 -0.646112,1.42001 -0.821827,2.03438 -0.163777,0.57222 -0.609635,1.19165 -0.609635,2.0068 h -0.617339 c 0,-0.89962 0.175784,-1.51415 0.351565,-2.12858 0.163579,-0.57216 0.515509,-1.09746 0.515509,-1.9126 0,-0.83549 -0.309099,-1.99209 -0.476977,-3.10145 -0.171485,-1.13334 -0.766432,-2.26679 -0.766432,-3.14596 0,-0.90918 0.536244,-1.35817 0.696119,-1.80714 0.141816,-0.39823 0.283665,-0.79659 0.283665,-1.60218 0,-0.83242 -0.759651,-2.10768 -1.001811,-3.38297 -0.248047,-1.30697 0.02119,-2.61395 0.02119,-3.4963 0,-0.87733 0.453663,-2.181391 0.672076,-3.673408 0.214808,-1.467282 0.429684,-2.840535 0.429684,-3.678105 0,-0.782342 -0.340157,-1.266 -0.444963,-1.46738 -0.139766,-0.268684 -0.655969,-0.490307 -0.655969,-1.42273 0,-0.936956 0.679715,-1.519238 0.98306,-2.054458 0.262334,-0.462822 0.524833,-0.925875 0.524833,-1.70352 0,-0.82378 -0.607978,-1.833263 -0.886685,-3.030736 -0.28706,-1.23385 -0.244859,-2.655853 -0.244859,-3.546872 z"
         style="display:inline;fill:#bdbda6;fill-opacity:0.5;fill-rule:nonzero;stroke:none;stroke-width:0.264583"
         id="path242" />
      <path
         inkscape:connector-curvature="0"
         d="m 87.58474,80.493641 c 0,0.809824 0.319683,1.759514 0.639267,2.709104 0.336482,0.999759 0.955972,2.056143 0.955972,2.961084 0,0.921676 -0.624351,1.635125 -0.965632,2.405062 -0.314788,0.710174 -0.629607,1.420315 -0.629607,2.213372 0,0.978826 0.715698,1.655331 0.715698,2.654895 0,0.877226 -0.444863,2.369344 -0.663213,3.861361 -0.214775,1.467282 -0.429649,2.934761 -0.429649,3.772331 0,0.86476 -0.369755,2.22432 -0.456573,3.35756 -0.08559,1.1176 0.111755,2.00888 0.111755,2.85899 0,0.81535 0.17327,1.38112 0.346504,1.94674 0.18769,0.61301 0.375478,1.22594 0.375478,2.1253 0,0.83542 0.16801,1.94495 0.335822,3.05438 0.171548,1.13334 0.343099,2.26679 0.343099,3.14596 0,0.89962 -0.175784,1.51405 -0.351465,2.12851 -0.163777,0.57223 -0.327456,1.14459 -0.327456,1.95974 h -0.617339 c 0,-0.89962 0.175784,-1.51415 0.351565,-2.12858 0.163679,-0.57216 -0.238522,-1.03134 -0.238522,-1.84643 0,-0.83558 0.73746,-1.60555 0.56955,-2.71489 -0.171485,-1.13344 -0.343032,-2.6629 -0.343032,-3.54217 0,-0.81541 -0.512829,-1.43775 -0.686065,-2.00333 -0.18769,-0.61294 -0.375478,-1.22598 -0.375478,-2.12523 0,-0.86476 0.08682,-1.9981 0.173633,-3.13124 0.08559,-1.1176 0.171185,-2.23537 0.171185,-3.08531 0,-0.87733 0.444831,-2.199745 0.663279,-3.691797 0.214775,-1.467281 0.203266,-3.104422 0.203266,-3.941895 0,-0.97886 -0.489381,-1.655333 -0.489381,-2.654895 0,-0.921843 0.341444,-1.691812 0.682791,-2.461784 0.314688,-0.710075 0.62951,-1.420217 0.62951,-2.213271 0,-0.80989 -0.319683,-1.75958 -0.639268,-2.709169 -0.336483,-0.99976 -0.673033,-1.999523 -0.673033,-2.904398 z"
         style="display:inline;fill:#d1d1b8;fill-opacity:0.5;fill-rule:nonzero;stroke:none;stroke-width:0.264583"
         id="path244" />
      <path
         inkscape:connector-curvature="0"
         d="m 69.410281,80.493641 c 0,0.829337 0.279466,2.029984 0.558733,3.230465 0.286412,1.230741 0.572823,2.461583 0.572823,3.347143 0,0.923629 -0.300005,1.452862 -0.599911,1.98206 -0.265774,0.468842 -0.531645,0.937882 -0.531645,1.728954 0,0.857978 0.253206,1.402292 0.224234,1.85248 -0.02801,0.434711 -0.338336,0.775592 -0.338336,1.632181 0,0.851265 -0.771856,2.133105 -0.838136,3.414945 -0.06515,1.262724 0.575071,2.525451 0.575071,3.388981 0,0.83651 0.05457,2.20864 0.297194,3.48645 0.247583,1.30436 1.153882,2.60879 1.153882,3.48694 0,0.90048 -0.628782,1.25118 -0.787236,1.69595 -0.143238,0.40236 -0.286676,0.80493 -0.286676,1.61925 0,0.83896 0.168275,1.95047 0.336452,3.06195 0.171283,1.1313 0.342469,2.26269 0.342469,3.13839 0,0.89261 -0.174758,1.50366 -0.34948,2.11445 -0.164637,0.5757 -0.329441,1.1516 -0.329441,1.9738 h -0.514416 c 0,-0.89258 0.174858,-1.50357 0.349514,-2.11452 0.164703,-0.57574 0.47053,-0.86936 0.47053,-1.69145 0,-0.83906 -0.121245,-2.13873 -0.289422,-3.25021 -0.171186,-1.13129 -0.765837,-2.35677 -0.765837,-3.23241 0,-0.90058 0.393668,-1.34531 0.551987,-1.79007 0.143338,-0.40247 0.380836,-0.75797 0.380836,-1.57219 0,-0.83661 -0.336748,-2.16158 -0.579472,-3.43949 -0.247615,-1.30436 -0.4953,-2.60879 -0.4953,-3.48684 0,-0.85136 -0.357087,-2.133303 -0.290809,-3.415043 0.06515,-1.262724 0.553871,-2.525448 0.553871,-3.388883 0,-0.858176 0.405376,-1.214337 0.434348,-1.664428 0.02805,-0.43471 -0.320246,-0.963644 -0.320246,-1.820233 0,-0.923827 0.300006,-1.452959 0.600009,-1.98216 0.265676,-0.46894 0.531548,-0.937882 0.531548,-1.728854 0,-0.829402 -0.279366,-2.030047 -0.558734,-3.230528 -0.286412,-1.230842 -0.572823,-2.461683 -0.572823,-3.34708 h 0.514416 z"
         style="display:inline;fill:#bdbda6;fill-opacity:0.5;fill-rule:nonzero;stroke:none;stroke-width:0.264583"
         id="path246" />
      <path
         inkscape:connector-curvature="0"
         d="m 68.238571,80.493641 c 0,0.833173 -0.09608,1.950112 0.09009,3.019888 0.190998,1.097526 1.275755,2.242114 1.275755,3.123737 0,0.900941 -0.759651,1.413206 -0.954913,2.066364 -0.181901,0.608905 -0.12872,1.594213 -0.12872,2.407873 0,0.871042 -0.36853,1.296757 -0.454885,2.051513 -0.08381,0.733623 -0.167714,1.467215 -0.167714,2.310871 0,0.733591 -0.339095,1.626163 -0.348853,2.659758 -0.0086,0.907619 0.312111,1.957225 0.312111,2.937205 0,0.83231 0.242125,2.10767 0.484187,3.38296 0.24828,1.30688 0.778703,2.33174 0.778703,3.21413 0,0.90911 -0.254066,1.73447 -0.413909,2.18334 -0.141848,0.39826 -0.47185,0.70247 -0.47185,1.50816 0,0.83542 -0.0673,1.94495 0.100608,3.05438 0.171548,1.13334 0.578345,2.26679 0.578345,3.14596 0,0.89962 -0.175781,1.51405 -0.351565,2.12851 -0.163677,0.57223 -0.327388,1.14459 -0.327388,1.95974 h -0.617339 c 0,-0.89962 0.175781,-1.51415 0.351565,-2.12858 0.163677,-0.57216 0.327388,-1.14452 0.327388,-1.95967 0,-0.83549 -0.168011,-1.94502 -0.33592,-3.05438 -0.17145,-1.13334 -0.343033,-2.26679 -0.343033,-3.14596 0,-0.90918 0.159941,-1.35817 0.319781,-1.80714 0.141851,-0.39823 0.283699,-0.79659 0.283699,-1.60218 0,-0.83242 -0.05401,-2.10768 -0.296166,-3.38297 -0.248148,-1.30697 -0.449263,-2.47282 -0.449263,-3.35521 0,-0.73481 -0.695788,-1.955636 -0.686033,-2.989131 0.0086,-0.907388 0.769774,-1.626658 0.769774,-2.607733 0,-0.871241 -0.195858,-1.767186 -0.109604,-2.522074 0.08391,-0.733491 0.450088,-1.137941 0.450088,-1.981499 0,-0.901039 -0.08698,-1.883635 0.108183,-2.536891 0.181901,-0.608905 0.646144,-1.264873 0.646144,-2.078533 0,-0.833141 -0.468476,-1.856052 -0.654579,-2.925828 -0.191061,-1.097526 -0.382024,-2.19505 -0.382024,-3.07661 h 0.617339 z"
         style="display:inline;fill:#d1d1b8;fill-opacity:0.5;fill-rule:nonzero;stroke:none;stroke-width:0.264583"
         id="path248" />
      <path
         inkscape:connector-curvature="0"
         d="m 66.747876,80.493641 c 0,0.84799 0.09346,1.66079 0.186929,2.473325 0.09515,0.826691 0.472479,1.653382 0.472479,2.52009 0,0.862973 -1.129935,1.859823 -1.225021,2.762549 -0.09356,0.887413 0.377429,1.68093 0.377429,2.532658 0,0.876067 0.04445,1.611741 -0.09918,2.347481 -0.139668,0.714939 -0.279368,1.430073 -0.279368,2.268771 0,0.864822 -0.423365,1.798669 -0.376402,2.779479 0.04772,0.997876 0.565976,2.043016 0.565976,2.892856 0,0.84018 0.281054,1.896 0.467982,2.95163 0.190137,1.07391 0.568589,2.14782 0.568589,3.0224 0,0.86962 -0.18964,1.66902 -0.285088,2.32734 -0.09307,0.64151 -0.37432,1.14197 -0.37432,1.98722 0,0.84279 0.16854,1.95629 0.337013,3.06956 0.170921,1.12941 0.341908,2.25901 0.341908,3.13078 0,0.88556 -0.17373,1.49308 -0.347429,2.10036 -0.165762,0.57931 -0.331492,1.15868 -0.331492,1.98789 H 66.33629 c 0,-0.88557 0.03264,-1.44599 0.206441,-2.0534 0.165661,-0.57927 0.09621,-1.20564 0.09621,-2.03485 0,-0.84289 0.207733,-1.95629 0.03926,-3.06966 -0.170889,-1.12941 -0.341908,-2.25881 -0.341908,-3.13068 0,-0.86962 0.09555,-1.52794 0.191096,-2.18625 0.09307,-0.64152 0.186166,-1.28317 0.186166,-2.12832 0,-0.84008 -0.187026,-1.8959 -0.374055,-2.95172 -0.190135,-1.07381 -0.380338,-2.14772 -0.380338,-3.0223 0,-0.86496 -0.4234,-1.798804 -0.470263,-2.779614 -0.04782,-0.997876 0.280689,-2.04288 0.280689,-2.892721 0,-0.876202 0.143734,-1.611842 0.287438,-2.347616 0.139599,-0.714936 -0.003,-1.382978 -0.003,-2.221672 0,-0.862973 -0.187126,-1.718834 -0.09204,-2.62146 0.09346,-0.887413 1.033661,-1.774957 1.033661,-2.626683 0,-0.848056 -0.37574,-1.754883 -0.469204,-2.567517 -0.09506,-0.826592 -0.190249,-1.653283 -0.190249,-2.519926 h 0.411591 z"
         style="display:inline;fill:#bdbda6;fill-opacity:0.5;fill-rule:nonzero;stroke:none;stroke-width:0.264583"
         id="path250" />
      <path
         inkscape:connector-curvature="0"
         d="m 65.163684,80.493641 c 0,0.84799 0.09346,1.66079 0.186928,2.473325 0.09505,0.826691 0.519475,1.700446 0.519475,2.567155 0,0.86297 -0.941816,1.483518 -1.036868,2.38621 -0.0935,0.887445 0.09525,1.774989 0.09525,2.626683 0,0.876102 0.09138,1.84699 -0.05222,2.58273 -0.139602,0.714939 -0.467553,1.194859 -0.467553,2.033522 0,0.864957 0.235215,2.080982 0.28221,3.061692 0.04769,0.997976 0.09552,1.996052 0.09552,2.845892 0,0.8132 -0.01932,1.92064 -0.03853,3.02792 -0.01836,1.06006 -0.03684,2.12028 -0.03684,3.02158 0,0.84376 0.11109,1.46361 0.222282,2.08329 0.115027,0.64238 0.08917,1.33172 0.08917,2.20286 0,0.84273 0.30966,1.90923 0.478102,3.0225 0.171019,1.12941 0.577154,2.30597 0.577154,3.17784 0,0.88556 -0.408948,1.44602 -0.582679,2.0533 -0.165729,0.57931 -0.33139,1.15868 -0.33139,1.98788 h -0.41156 c 0,-0.88556 0.173699,-1.49304 0.34743,-2.10036 0.165764,-0.57937 0.331491,-1.15867 0.331491,-1.98788 0,-0.84289 -0.168574,-1.9563 -0.337111,-3.06966 -0.170921,-1.12941 -0.34181,-2.25881 -0.34181,-3.13068 0,-0.84376 -0.111191,-1.46361 -0.222284,-2.0834 -0.115126,-0.64228 -0.418502,-1.28465 -0.418502,-2.15569 0,-0.81346 -0.02785,-1.82662 -0.0085,-2.9339 0.01844,-1.06005 0.272058,-2.2142 0.272058,-3.1156 0,-0.86496 0.04706,-1.798804 1.99e-4,-2.779614 -0.04782,-0.997876 -0.189675,-2.04288 -0.189675,-2.892721 0,-0.876202 0.143735,-1.611842 0.287338,-2.347616 0.139602,-0.714936 0.2794,-1.430039 0.2794,-2.268636 0,-0.863071 -0.422342,-2.00111 -0.32729,-2.903736 0.09346,-0.887513 0.704421,-1.539843 0.704421,-2.391471 0,-0.848055 -0.09346,-1.660855 -0.187028,-2.473489 -0.09506,-0.826592 -0.190117,-1.653283 -0.190117,-2.519926 z"
         style="display:inline;fill:#d1d1b8;fill-opacity:0.5;fill-rule:nonzero;stroke:none;stroke-width:0.264583"
         id="path252" />
    </g>
    <g
       id="g1106"
       transform="matrix(1.8044955,0,0,1.8044955,-45.917051,-100.25566)"
       clip-path="url(#clipPath70590)"
       mask="url(#mask1190)">
      <path
         inkscape:connector-curvature="0"
         d="M 63.031142,80.493641 H 104.18553 V 121.64803 H 63.031142 Z"
         style="display:inline;fill:#7a7a7a;fill-opacity:1;fill-rule:evenodd;stroke:none;stroke-width:0.264583"
         id="path1064" />
      <path
         inkscape:connector-curvature="0"
         d="m 101.77259,80.493641 c 0,0.839161 -0.14185,2.025023 0.0331,3.1202 0.17991,1.125273 1.1294,2.069637 1.1294,2.945077 0,0.898954 -0.95372,1.616604 -1.13774,2.243698 -0.17082,0.58192 -0.0247,1.163902 -0.0247,1.979647 0,0.836414 0.46649,1.597488 0.57064,2.177222 0.11027,0.61314 -0.14155,1.045435 -0.14155,1.923688 0,0.878218 -0.5668,2.330053 -0.77129,3.464882 -0.19857,1.101561 -0.0802,1.886245 -0.0802,2.722795 0,0.83231 0.28744,2.10767 0.5295,3.38296 0.24824,1.30688 0.49639,2.61395 0.49639,3.49631 0,0.87527 -0.3345,1.60043 -0.44248,2.28011 -0.10332,0.64948 -0.20664,1.299 -0.20664,2.13843 0,0.84074 0.34911,1.66314 0.47185,2.53077 0.12627,0.89317 0.25274,1.7864 0.25274,2.66035 0,0.89962 -0.17578,1.51405 -0.35156,2.12851 -0.16368,0.57223 -0.32736,1.14459 -0.32736,1.95974 h -0.61734 c 0,-0.89962 0.17578,-1.51415 0.35153,-2.12858 0.16371,-0.57216 0.32739,-1.14452 0.32739,-1.95967 0,-0.84074 -0.1228,-1.70841 -0.24553,-2.57605 -0.12627,-0.89317 -0.25264,-1.78643 -0.25264,-2.66035 0,-0.87534 0.10808,-1.55512 0.21616,-2.2348 0.10322,-0.64952 0.38768,-1.25383 0.38768,-2.09319 0,-0.83238 -0.4233,-2.15295 -0.66546,-3.42824 -0.24815,-1.30697 -0.81316,-2.56864 -0.81316,-3.45102 0,-0.87835 -0.0217,-1.424817 0.18279,-2.559649 0.19847,-1.101492 1.03088,-2.746407 1.03088,-3.582755 0,-0.836647 -0.0138,-1.461757 -0.11803,-2.041591 -0.11023,-0.61314 -0.40161,-1.27172 -0.40161,-2.149872 0,-0.899088 0.18412,-1.526183 0.36814,-2.15328 0.17072,-0.581784 0.70379,-1.073314 0.70379,-1.888958 0,-0.839324 -0.5372,-2.025089 -0.71223,-3.120265 -0.17981,-1.125305 -0.3597,-2.250678 -0.3597,-3.126119 z"
         style="display:inline;fill:#d1d1b8;fill-opacity:0.5;fill-rule:nonzero;stroke:none;stroke-width:0.264583"
         id="path1066" />
      <path
         inkscape:connector-curvature="0"
         d="m 99.737647,80.493641 c 0,0.823617 0.278703,2.021351 0.557343,3.218823 0.28708,1.233752 1.1175,2.241286 1.1175,3.132368 0,0.891381 -0.8458,1.634829 -0.96711,2.151758 -0.11298,0.481145 -0.452375,0.781214 -0.452375,1.604531 0,0.880304 0.134735,1.312699 0.08845,1.564019 -0.0404,0.218744 0.14559,0.437554 0.14559,1.272018 0,0.862971 -0.11177,2.365772 -0.22361,3.868606 -0.110413,1.486659 -0.221041,2.973556 -0.221041,3.825276 0,0.83886 0.182528,1.9646 0.364851,3.09017 0.18735,1.15537 0.37476,2.31084 0.37476,3.18668 0,0.86323 -0.0769,1.63039 -0.15358,2.39745 -0.0743,0.74289 -0.14867,1.48584 -0.14867,2.3373 0,0.86416 -0.17777,1.8238 -0.12912,2.73814 0.0498,0.93675 0.59756,1.87368 0.59756,2.72428 0,0.89955 -0.67366,1.46877 -0.849347,2.08323 -0.163711,0.57223 -0.101071,1.14459 -0.101071,1.95973 h -0.617238 c 0,-0.89961 0.175683,-1.51414 0.351464,-2.12857 0.16368,-0.57216 0.327356,-1.14452 0.327356,-1.95967 0,-0.86409 -0.04855,-1.77853 -0.0972,-2.69286 -0.04978,-0.93686 -0.09968,-1.87371 -0.09968,-2.72428 0,-0.86327 0.0768,-1.63043 0.153591,-2.39749 0.07434,-0.74288 0.374865,-1.48583 0.374865,-2.33726 0,-0.8389 -0.589842,-1.96454 -0.772272,-3.09021 -0.187325,-1.15527 -0.329438,-2.31073 -0.329438,-3.18664 0,-0.86307 0.428691,-2.275315 0.540544,-3.778149 0.11053,-1.48676 0.04012,-3.064105 0.04012,-3.915733 0,-0.880303 0.04633,-1.131755 0.09274,-1.383011 0.04031,-0.21871 -0.326829,-0.618561 -0.326829,-1.453026 0,-0.891479 0.52887,-1.227367 0.650145,-1.744297 0.11297,-0.481145 0.45237,-1.233852 0.45237,-2.057268 0,-0.823682 -0.504954,-1.749755 -0.783658,-2.947228 -0.287073,-1.233818 -0.574114,-2.467668 -0.574114,-3.358687 z"
         style="display:inline;fill:#d1d1b8;fill-opacity:0.5;fill-rule:nonzero;stroke:none;stroke-width:0.264583"
         id="path1068" />
      <path
         inkscape:connector-curvature="0"
         d="m 98.668797,80.493641 c 0,0.838994 0.190598,1.967543 0.381,3.095924 0.194437,1.152293 0.162652,2.304653 0.162652,3.180358 0,0.896837 -0.108942,1.446874 -0.308535,2.042253 -0.185442,0.55331 -0.325671,1.152093 -0.325671,1.970087 0,0.794708 0.198372,1.001811 0.306091,1.208815 0.136888,0.262962 0.273844,0.526024 0.273844,1.44608 0,0.873951 -0.218149,2.318708 -0.436298,3.808677 -0.215074,1.46943 -0.566076,2.984165 -0.566076,3.825015 0,0.83651 0.378553,2.11452 0.621075,3.39242 0.247716,1.30427 0.585954,2.47296 0.585954,3.35111 0,0.90038 -0.249007,1.48104 -0.40736,1.92581 -0.143238,0.40236 -0.37723,0.80493 -0.37723,1.61925 0,0.83896 -0.01286,1.99575 0.155443,3.10723 0.171185,1.13129 0.840351,2.21741 0.840351,3.09311 0,0.89261 -0.401042,1.50366 -0.5758,2.11445 -0.164703,0.5757 -0.32944,1.1516 -0.32944,1.9738 h -0.514416 c 0,-0.89258 0.174757,-1.50357 0.349514,-2.11452 0.164703,-0.57574 0.329441,-1.15163 0.329441,-1.97373 0,-0.83906 -0.168275,-1.95057 -0.336484,-3.06196 -0.171286,-1.13139 -0.342471,-2.26274 -0.342471,-3.13838 0,-0.90058 -0.06787,-1.48117 0.09049,-1.9259 0.143338,-0.40247 0.512996,-0.6692 0.512996,-1.48342 0,-0.83662 -0.242724,-2.11452 -0.485347,-3.39243 -0.247584,-1.30436 -0.495265,-2.60879 -0.495265,-3.48684 0,-0.87412 0.535019,-2.27363 0.75307,-3.763599 0.215172,-1.46933 0.11344,-3.029445 0.11344,-3.870093 0,-0.794908 -0.107818,-1.00191 -0.215604,-1.208915 -0.136789,-0.262962 -0.273777,-0.526124 -0.273777,-1.44598 0,-0.896906 0.199596,-1.492218 0.399092,-2.087628 0.185438,-0.55331 0.370977,-1.106721 0.370977,-1.924712 0,-0.839126 -0.190597,-1.967508 -0.381,-3.09599 -0.194534,-1.152292 -0.389069,-2.304653 -0.389069,-3.180292 z m -0.329438,25.830939 c 0,0.47665 -0.13312,1.28813 -0.276458,1.66651 -0.07352,0.19417 -0.143338,0.95158 -0.242358,0.87386 -0.152898,-0.11983 -0.273844,-0.82593 -0.342006,-1.10355 -0.08903,-0.36271 -0.218713,-0.89082 -0.218713,-1.43682 0,-0.7317 0.06592,-2.57181 0.351203,-3.12982 0.262401,0.56813 0.728332,2.41217 0.728332,3.12982 z m -0.33741,0 c 0,-0.40987 -0.09036,-0.73471 -0.18157,-0.97284 -0.107919,0.2371 -0.223145,0.56955 -0.223145,0.97284 0,0.43435 0.09899,0.87534 0.17833,1.20161 0.112019,-0.34856 0.226385,-0.85603 0.226385,-1.20161"
         style="display:inline;fill:#bdbda6;fill-opacity:0.5;fill-rule:nonzero;stroke:none;stroke-width:0.264583"
         id="path1070" />
      <path
         inkscape:connector-curvature="0"
         d="m 97.702803,80.493641 c 0,0.845278 0.116054,1.884495 0.231939,2.923614 0.118401,1.060879 0.236903,2.12176 0.236903,2.991181 0,0.883113 -0.164902,1.154144 -0.284427,1.832536 -0.114864,0.651007 -0.184415,1.709605 -0.184415,2.541291 0,0.782241 0.104907,0.983787 0.209714,1.185069 0.139766,0.268618 0.279665,0.537303 0.279665,1.469826 0,0.877226 -0.218446,2.369344 -0.436893,3.861361 -0.214776,1.467282 -0.429649,2.934761 -0.429649,3.772331 0,0.86532 -0.328878,2.25928 -0.431237,3.24581 -0.100147,0.96308 0.02617,1.51884 0.02617,2.36822 0,0.82004 0.506976,1.58475 0.697212,2.30419 0.200917,0.76041 0.08503,1.47561 0.08503,2.37037 0,0.83542 0.16801,1.94495 0.335822,3.05438 0.171551,1.13334 0.343099,2.26679 0.343099,3.14596 0,0.89962 -0.175781,1.51405 -0.351465,2.12851 -0.163679,0.57223 -0.327456,1.14459 -0.327456,1.95974 h -0.617238 c 0,-0.89962 0.175781,-1.51415 0.351464,-2.12858 0.163679,-0.57216 0.553773,-1.00876 0.553773,-1.82384 0,-0.83548 -0.16801,-2.62404 -0.33592,-3.7335 -0.17145,-1.13334 -0.569317,-1.7235 -0.569317,-2.60267 0,-0.82011 0.126634,-1.49437 -0.0634,-2.2137 -0.200982,-0.76042 -0.718872,-1.56621 -0.718872,-2.46086 0,-0.86542 -0.485974,-1.08235 -0.293058,-2.65735 0.100044,-1.32526 0.698068,-2.1074 0.698068,-2.95668 0,-0.87733 0.354378,-2.233678 0.572725,-3.72573 0.214776,-1.467281 -0.06826,-2.617787 -0.06826,-3.455259 0,-0.782342 0.07613,-1.34597 -0.02868,-1.547416 -0.139797,-0.268587 -0.09852,-0.627856 -0.09852,-1.560182 0,-0.883245 0.210177,-2.240724 0.329702,-2.919015 0.114763,-0.651108 -0.22311,-0.62316 -0.22311,-1.454812 0,-0.845444 0.246163,-1.884561 0.130207,-2.92368 -0.118398,-1.060879 -0.236802,-2.12176 -0.236802,-2.991115 h 0.617241 z"
         style="display:inline;fill:#bdbda6;fill-opacity:0.5;fill-rule:nonzero;stroke:none;stroke-width:0.264583"
         id="path1072" />
      <path
         inkscape:connector-curvature="0"
         d="m 78.346614,89.036542 0.02529,0.06975 c 0.219107,0.6013 0.616411,1.691613 0.616411,3.288837 0,1.066204 -0.321466,2.698022 -0.575334,3.536984 -0.05831,0.192582 -0.11589,0.350838 -0.168177,0.459383 -0.164076,0.340021 -0.365818,0.424688 -0.601036,0.1905 -0.06122,-0.06092 -0.10183,-0.150085 -0.117938,-0.26961 -0.02207,-0.162754 -0.06836,-0.4024 -0.12356,-0.68815 -0.158552,-0.820208 -0.389366,-2.01467 -0.389366,-3.229107 0,-1.533393 0.461367,-2.648445 0.702006,-3.230065 0.0167,-0.04032 0.03291,-0.07951 0.05652,-0.138179 l 0.300466,-0.744934 0.274703,0.754591 z m 0.02437,3.358587 c 0,-0.991889 -0.16424,-1.775619 -0.334798,-2.355485 -0.200718,0.578543 -0.405937,1.376825 -0.405937,2.355485 0,1.04117 0.179917,2.079823 0.327853,2.856476 0.207367,-0.843293 0.412882,-2.032132 0.412882,-2.856476"
         style="display:inline;fill:#bdbda6;fill-opacity:0.5;fill-rule:nonzero;stroke:none;stroke-width:0.264583"
         id="path1074" />
      <path
         inkscape:connector-curvature="0"
         d="m 93.757601,111.67426 c 0,0.63966 -0.326332,1.60724 -0.588632,2.11518 -0.402862,0.78039 -0.619059,2.05677 -0.663112,2.03147 -0.157956,-0.0909 -0.163975,-1.74159 -0.323418,-2.21814 -0.162952,-0.48683 -0.400217,-1.19568 -0.400217,-1.92851 0,-0.81274 0.346869,-1.41797 0.791038,-2.05456 l 0.468114,-2.17256 c 0.03215,1.54332 0.716227,2.93006 0.716227,4.22712 z m -0.617339,0 c 0,-0.55024 -0.165365,-0.98617 -0.332348,-1.30575 -0.197512,0.31809 -0.408353,0.76434 -0.408353,1.30575 0,0.58301 0.122801,1.83214 0.267824,2.27006 0.205053,-0.46802 0.472877,-1.80628 0.472877,-2.27006"
         style="display:inline;fill:#d1d1b8;fill-opacity:0.5;fill-rule:nonzero;stroke:none;stroke-width:0.264583"
         id="path1076" />
      <path
         inkscape:connector-curvature="0"
         d="m 78.657301,80.493641 c 0,0.84422 0.05642,1.480873 0.112678,2.117461 0.05758,0.650049 0.115129,1.300131 0.115129,2.170575 0,0.808138 0.330663,1.779389 0.661326,2.750542 0.347432,1.020763 0.69506,2.041592 0.69506,2.948252 0,1.043517 -0.08344,3.042479 -0.416819,4.931074 -0.216562,1.226609 -0.540576,2.411908 -1.018876,3.274484 -0.01283,0.346305 -0.108183,0.548812 -0.219737,0.785812 -0.137252,0.291769 -0.02299,0.763129 -0.02299,1.712149 0,0.83231 -0.04078,1.99453 0.201382,3.26982 0.248145,1.30688 0.49639,2.61395 0.49639,3.49631 0,0.9091 -0.159906,1.35817 -0.319847,1.80713 -0.141851,0.39817 -0.283699,0.7965 -0.283699,1.60219 0,0.83542 0.394295,2.00147 0.562205,3.1109 0.171485,1.13335 0.56945,2.38003 0.56945,3.25921 0,0.89955 -0.628484,1.34428 -0.804201,1.95874 -0.163677,0.57223 -0.327454,1.14459 -0.327454,1.95974 h -0.617241 c 0,-0.89962 0.175683,-1.51415 0.351467,-2.12858 0.163677,-0.57216 0.78009,-0.9182 0.78009,-1.73325 0,-0.83552 -0.620647,-2.17144 -0.788525,-3.2808 -0.171482,-1.13334 -0.569449,-2.04037 -0.569449,-2.91965 0,-0.9091 0.38626,-1.58448 0.5462,-2.03345 0.141817,-0.39823 0.566605,-0.68342 0.566605,-1.48901 0,-0.83231 -0.242226,-2.27747 -0.484386,-3.55276 -0.248081,-1.30687 -0.779264,-2.55733 -0.779264,-3.43968 0,-1.083865 0.201846,-1.512657 0.366184,-1.861774 0.08728,-0.185439 0.160967,-0.341908 0.160967,-0.604142 v -0.07997 l 0.0422,-0.07313 c 0.458721,-0.795073 0.772583,-1.944291 0.984845,-3.146425 0.325668,-1.845006 0.40716,-3.802327 0.40716,-4.824942 0,-0.808037 -0.330663,-1.779389 -0.661326,-2.750542 -0.34743,-1.020728 -0.695061,-2.041591 -0.695061,-2.948252 0,-0.844317 -0.05636,-1.48097 -0.112678,-2.117526 -0.05747,-0.649949 -0.115022,-1.300128 -0.115022,-2.17051 z"
         style="display:inline;fill:#d1d1b8;fill-opacity:0.5;fill-rule:nonzero;stroke:none;stroke-width:0.264583"
         id="path1078" />
      <path
         inkscape:connector-curvature="0"
         d="m 83.348562,80.493641 c 0,0.85325 0.05616,1.413405 0.112316,1.973263 0.05775,0.575998 0.454951,0.472977 0.454951,1.334526 0,0.870842 -0.458356,2.269596 -0.577022,2.989229 -0.115591,0.700121 -0.23128,1.400439 -0.23128,2.244261 0,0.831123 0.23935,1.715659 0.478499,2.599995 0.246361,0.911061 0.662617,1.822317 0.662617,2.705994 0,0.890818 -0.385498,2.13092 -0.770898,3.201194 -0.372666,1.034618 -0.915093,1.899541 -0.915093,2.723517 0,0.84217 -0.04471,2.05959 -0.08936,3.27713 -0.04385,1.19493 -0.08774,2.39015 -0.08774,3.26268 0,0.82444 0.461534,1.40457 0.696648,2.09785 0.246295,0.72638 0.266369,1.5659 0.266369,2.45616 0,0.82537 0.199761,2.14967 0.173337,3.30401 -0.02559,1.11856 -0.617175,1.78445 -0.617175,2.67368 0,0.86681 0.534955,1.77552 0.560551,2.34458 0.02653,0.58744 -0.116713,1.11826 -0.116713,1.96631 H 82.93701 c 0,-0.8668 0.20062,-1.26626 0.175022,-1.83544 -0.02646,-0.58735 -1.071563,-1.28803 -1.071563,-2.13589 0,-0.82566 0.818819,-2.03673 0.845243,-3.19107 0.02561,-1.11843 -0.288197,-1.55793 -0.288197,-2.44716 0,-0.82451 0.104346,-2.19694 -0.13077,-2.89011 -0.246359,-0.72639 -0.492752,-1.45276 -0.492752,-2.34292 0,-0.84234 -0.181605,-1.83346 -0.136957,-3.05081 0.04376,-1.19503 0.314063,-2.61647 0.314063,-3.489 0,-0.890915 0.385498,-1.961253 0.770994,-3.031492 0.372567,-1.034622 0.745299,-2.069341 0.745299,-2.893219 0,-0.831189 -0.239249,-1.715624 -0.478499,-2.599963 -0.246361,-0.911058 -0.719238,-1.595998 -0.719238,-2.479608 0,-0.870943 0.345183,-1.81696 0.463947,-2.536592 0.115525,-0.70022 0.570772,-2.079461 0.570772,-2.923316 0,-0.853413 -0.395716,-0.734351 -0.451874,-1.294309 -0.05765,-0.575998 -0.11549,-1.152094 -0.11549,-2.01348 z"
         style="display:inline;fill:#d1d1b8;fill-opacity:0.5;fill-rule:nonzero;stroke:none;stroke-width:0.264583"
         id="path1080" />
      <path
         inkscape:connector-curvature="0"
         d="m 76.320665,80.493641 c 0,0.823617 0.6183,1.96473 0.896906,3.1623 0.287073,1.233752 -0.04829,2.524125 -0.04829,3.415308 0,0.936858 -0.02051,1.472142 -0.323784,2.007362 -0.262335,0.462854 -0.524836,0.925809 -0.524836,1.703652 0,0.856126 0.0091,2.186615 0.09975,3.525375 0.09009,1.332441 0.259789,2.681221 0.579009,3.592478 l 0.0118,0.03367 0.0038,0.03383 c 0.133152,1.175245 0.133152,1.854001 -0.148762,2.530214 -0.207005,0.49652 -0.696484,0.99169 -0.696484,1.70478 0,0.83277 0.18564,1.82492 0.371179,2.81708 0.191624,1.0242 0.383249,2.04863 0.383249,2.93043 0,0.9091 0.122997,1.35817 -0.03694,1.80713 -0.141848,0.39817 -0.566637,0.7965 -0.566637,1.60219 0,0.83542 -0.511011,1.77515 -0.343199,2.88458 0.171551,1.13335 1.588029,2.54973 1.588029,3.429 0,0.89955 -0.741659,1.40081 -0.917342,2.01527 -0.163711,0.57223 -0.327488,1.14459 -0.327488,1.95974 h -0.617241 c 0,-0.89962 0.175784,-1.51415 0.351467,-2.12858 0.163677,-0.57216 0.327388,-1.14452 0.327388,-1.95967 0,-0.83549 -0.733788,-2.00157 -0.9017,-3.111 -0.171482,-1.13334 0.222845,-2.21017 0.222845,-3.08934 0,-0.90918 0.44278,-1.35817 0.602721,-1.80714 0.141851,-0.39823 5.29e-4,-0.79659 5.29e-4,-1.60218 0,-0.83278 -0.751515,-1.88155 -0.937054,-2.87371 -0.191624,-1.02423 0.182727,-1.99192 0.182727,-2.8738 0,-0.83384 0.230518,-1.38669 0.461732,-1.94112 0.248608,-0.59654 0.498176,-1.19539 0.391848,-2.193928 -0.333079,-0.971616 -0.565216,-2.41472 -0.657259,-3.775506 -0.09269,-1.370904 -0.328274,-2.707878 -0.328274,-3.566451 0,-0.937022 0.586316,-1.415619 0.889696,-1.950839 0.2623,-0.462822 0.5247,-0.925875 0.5247,-1.70352 0,-0.82378 -0.278606,-2.021448 -0.557345,-3.218921 -0.287038,-1.233818 -0.574111,-2.467668 -0.574111,-3.358687 h 0.617238 z"
         style="display:inline;fill:#bdbda6;fill-opacity:0.5;fill-rule:nonzero;stroke:none;stroke-width:0.264583"
         id="path1082" />
      <path
         inkscape:connector-curvature="0"
         d="m 91.220347,80.493641 c 0,0.823617 -0.6267,2.134526 -0.348093,3.331999 0.287073,1.233752 1.479682,2.354426 1.479682,3.245609 0,0.902891 0.184878,1.394918 0.03036,1.88681 -0.140063,0.445889 -0.619686,0.891844 -0.619686,1.70362 0,0.847889 -0.240175,1.181727 -0.253968,1.458746 -0.01267,0.253241 0.201083,0.449924 0.201083,1.316733 0,0.854703 0.325403,4.490906 0.424524,5.976739 0.100211,1.503663 -0.421878,0.857153 -0.421878,1.717143 0,0.85282 0.324279,2.13965 0.252545,3.42646 -0.07048,1.26523 -0.141089,2.5307 -0.141089,3.39262 0,0.9091 -0.362149,1.2137 -0.521991,1.66267 -0.141849,0.39823 -0.08149,0.94096 -0.08149,1.74665 0,0.83542 0.167912,1.94495 0.335822,3.05438 0.171583,1.13334 0.343133,2.26679 0.343133,3.14596 0,0.89962 -0.175784,1.51405 -0.351467,2.12851 -0.163775,0.57223 -0.327486,1.14459 -0.327486,1.95974 h -0.617339 c 0,-0.89962 0.175782,-1.51415 0.351566,-2.12858 0.16371,-0.57216 0.587441,-1.31786 0.587441,-2.133 0,-0.83552 -0.427964,-1.77169 -0.595876,-2.88105 -0.171548,-1.13334 -0.747546,-2.06454 -0.747546,-2.94375 0,-0.90918 0.564356,-1.56038 0.724297,-2.00935 0.14175,-0.39823 0.485907,-0.73882 0.485907,-1.54434 0,-0.85292 -0.130506,-2.1975 -0.05877,-3.4842 0.07048,-1.26537 -0.594585,-2.19124 -0.594585,-3.05316 0,-0.85483 0.862907,-0.52999 0.763887,-2.015727 -0.100312,-1.503658 -0.42694,-5.157753 -0.42694,-6.017715 0,-0.847957 -0.212527,-1.125108 -0.198636,-1.402225 0.01254,-0.253108 0.251521,-0.506346 0.251521,-1.373254 0,-0.90289 0.607317,-1.338363 0.761899,-1.830289 0.139965,-0.445855 -0.172574,-0.948365 -0.172574,-1.760141 0,-0.82378 -0.901136,-2.021448 -1.179843,-3.218921 -0.287073,-1.233818 0.04825,-2.467668 0.04825,-3.358687 z"
         style="display:inline;fill:#d1d1b8;fill-opacity:0.5;fill-rule:nonzero;stroke:none;stroke-width:0.264583"
         id="path1084" />
      <path
         inkscape:connector-curvature="0"
         d="m 74.548886,80.493641 c 0,0.823617 -0.284991,2.002235 -0.0065,3.199707 0.287139,1.23385 1.138007,2.486718 1.138007,3.377901 0,0.936858 -0.529762,1.528696 -0.83304,2.063917 -0.262401,0.46292 -0.298517,0.869254 -0.298517,1.647097 0,0.837174 0.12065,1.654207 0.241036,2.471142 0.124121,0.841407 0.587904,1.852679 0.587904,2.730201 0,0.890323 -0.560983,1.625799 -0.782442,2.531039 -0.211764,0.865783 -0.649949,1.844905 -0.649949,2.669345 0,0.83231 0.01585,2.16423 0.257906,3.43962 0.342931,1.40153 1.005845,2.50094 0.949126,3.32651 0,0.9091 -0.15994,1.35817 -0.319881,1.80713 -0.141751,0.39817 -0.2837,0.7965 -0.2837,1.60219 0,0.83542 0.168011,1.94495 0.335823,3.05438 0.171548,1.13334 0.62607,2.32341 0.62607,3.20258 0,0.89955 -0.458721,1.45743 -0.634405,2.07189 -0.16371,0.57223 -0.327488,1.14459 -0.327488,1.95974 h -0.617241 c 0,-0.89962 0.175784,-1.51415 0.351467,-2.12858 0.163677,-0.57216 0.497153,-1.088 0.497153,-1.90305 0,-0.83549 -0.337675,-2.00164 -0.505587,-3.111 -0.171482,-1.13334 -0.739212,-2.21017 -0.739212,-3.08944 0,-0.90908 0.55612,-1.41469 0.715963,-1.86366 0.141848,-0.39823 0.453461,-0.79659 0.453461,-1.60218 0,-0.83242 -0.69496,-1.88136 -0.937022,-3.15665 -0.248139,-1.30688 -0.496419,-2.72709 -0.496419,-3.60948 0,-0.89042 0.504494,-1.908835 0.725919,-2.814072 0.211799,-0.865783 0.423661,-1.731764 0.423661,-2.556108 0,-0.837372 -0.120647,-1.654307 -0.241133,-2.47124 -0.124124,-0.841409 -0.248245,-1.682917 -0.248245,-2.560307 0,-0.937056 0.303376,-1.472274 0.606755,-2.007494 0.262303,-0.462822 0.524703,-0.925875 0.524703,-1.70352 0,-0.82378 -0.654944,-1.974387 -0.933648,-3.171857 -0.287076,-1.233818 -0.19781,-2.514732 -0.19781,-3.405751 z"
         style="display:inline;fill:#d1d1b8;fill-opacity:0.5;fill-rule:nonzero;stroke:none;stroke-width:0.264583"
         id="path1086" />
      <path
         inkscape:connector-curvature="0"
         d="m 95.314343,80.493641 c 0,0.834959 0.280128,2.038615 0.560158,3.242173 0.285649,1.227733 0.571399,2.455598 0.571399,3.335435 0,0.9104 -0.29663,1.433547 -0.593064,1.956761 -0.269147,0.474927 -0.538493,0.949854 -0.538493,1.754253 0,0.807178 0.110697,1.019903 0.221425,1.232527 0.133879,0.25744 0.267922,0.514781 0.267922,1.422368 0,0.87048 0.07107,2.474151 -0.146809,3.96207 -0.215339,1.471414 -0.950815,2.856172 -0.950815,3.700492 0,0.86757 0.626732,1.99857 0.67568,3.12956 0.04978,1.14994 -0.247121,2.27109 -0.247121,3.11841 0,0.85246 0.420092,1.39274 0.464608,1.96162 0.04528,0.57947 -0.371541,1.47684 -0.371541,2.33899 0,0.84279 0.255191,1.66743 0.423664,2.7807 0.171022,1.12941 0.341908,2.25901 0.341908,3.13078 0,0.88556 -0.173699,1.49308 -0.34743,2.10036 -0.165761,0.57931 -0.331491,1.15868 -0.331491,1.98789 h -0.411559 c 0,-0.88557 0.173799,-1.49305 0.34753,-2.10037 0.165727,-0.57937 0.446982,-1.07202 0.446982,-1.90116 0,-0.8429 -0.630735,-1.66744 -0.799306,-2.7808 -0.170921,-1.12941 0.0048,-2.63439 0.0048,-3.50626 0,-0.85266 -0.04455,-1.42171 -0.089,-1.9907 -0.04538,-0.57946 -0.09072,-1.15903 -0.09072,-2.02105 0,-0.86757 0.211103,-1.88307 0.162092,-3.01406 -0.04971,-1.14995 -0.59065,-2.27119 -0.59065,-3.11832 0,-0.87064 0.448966,-2.50322 0.66685,-3.991139 0.215336,-1.471379 0.430773,-2.942894 0.430773,-3.787013 0,-0.807376 -0.110693,-1.020003 -0.221324,-1.232627 -0.133977,-0.257342 -0.470265,-0.688216 -0.470265,-1.595636 0,-0.910497 0.49884,-1.260377 0.795372,-1.78349 0.269179,-0.474927 0.68289,-0.89221 0.68289,-1.696411 0,-0.835025 -0.424492,-2.096426 -0.70462,-3.299981 -0.285644,-1.227767 -0.571394,-2.455698 -0.571394,-3.335372 z"
         style="display:inline;fill:#d1d1b8;fill-opacity:0.5;fill-rule:nonzero;stroke:none;stroke-width:0.264583"
         id="path1088" />
      <path
         inkscape:connector-curvature="0"
         d="m 73.531428,80.493641 c 0,0.823617 -0.850236,2.303563 -0.571598,3.501099 0.287073,1.233752 1.703157,2.185326 1.703157,3.076509 0,0.936858 -0.303379,1.472142 -0.606755,2.007362 -0.262303,0.462854 -0.524804,0.925809 -0.524804,1.703652 0,0.832776 -0.01969,1.396206 -0.03939,1.95947 -0.01855,0.529201 -0.03711,1.058434 -0.03711,1.940322 h -0.0011 c 0,0.534096 0.195361,1.423127 0.0299,2.289836 -0.261837,1.370642 -0.934111,2.978547 -0.934111,5.079569 0.0013,0 0.649782,2.98989 0.697211,3.17467 0.288261,1.12369 0.43557,2.05932 0.43557,2.9503 0,0.90911 -0.15994,1.35818 -0.319881,1.80714 -0.14175,0.39813 -0.283601,0.7965 -0.283601,1.60218 0,0.81985 0.51263,1.95835 0.790045,3.00273 0.288264,1.08525 0.247386,1.98232 0.247386,2.87728 0,1.38112 -0.08176,1.67689 -0.25744,2.22253 -0.163679,0.57223 -0.327453,1.14459 -0.327453,1.95974 h -0.617241 c 0,-0.89962 0.175783,-1.51415 0.351533,-2.12858 0.16361,-0.57216 0.280326,-0.9093 0.280326,-1.72445 0,-0.81995 -0.465667,-2.00551 -0.743051,-3.04979 -0.288295,-1.08525 -0.341444,-2.2647 -0.341444,-3.15946 0,-0.9092 0.15994,-1.35817 0.31978,-1.80713 0.141851,-0.39823 0.2837,-0.7966 0.2837,-1.60219 0,-0.82378 -0.512728,-1.57592 -0.790144,-2.65724 -0.301855,-1.17703 -0.341807,-2.27026 -0.34022,-3.46773 0,-2.166176 0.348488,-3.99084 0.614429,-5.383474 0.160237,-0.838796 0.289719,-1.51709 0.289719,-1.985931 h -0.0011 c 0,-0.832975 0.01969,-1.396304 0.03946,-1.959571 0.01844,-0.529198 -0.386358,-1.058333 -0.386358,-1.940221 0,-0.937056 0.726744,-1.472274 1.030121,-2.007494 0.262334,-0.462822 0.712986,-0.878814 0.712986,-1.656556 0,-0.82368 -1.26656,-1.833198 -1.545198,-3.030636 -0.286909,-1.233852 0.225623,-2.702917 0.225623,-3.593936 h 0.617238 z"
         style="display:inline;fill:#d1d1b8;fill-opacity:0.5;fill-rule:nonzero;stroke:none;stroke-width:0.264583"
         id="path1090" />
      <path
         inkscape:connector-curvature="0"
         d="m 86.440152,80.493641 c 0,0.830628 0.219639,1.970551 0.439209,3.110344 0.225657,1.171046 0.564454,1.832835 0.564454,2.716972 0,0.913045 -0.403852,1.387972 -0.637842,1.976075 -0.211238,0.530521 -0.761936,1.626923 -0.761936,2.428576 0,0.847063 0.441954,1.32338 0.487693,1.743109 0.04829,0.441952 0.09658,0.883973 0.09658,1.75164 0,0.869058 -0.538691,2.390412 -0.681204,3.685283 -0.140131,1.272844 0.115888,2.31947 0.115888,3.16521 0,0.87825 -0.22483,2.12576 -0.449527,3.3734 -0.21871,1.21408 -0.437521,2.42832 -0.437521,3.26493 0,0.79924 0.198536,1.28382 0.397105,1.76841 0.222647,0.54339 0.445329,1.08684 0.445329,2.00233 0,1.1936 -0.392642,2.27522 -0.389171,3.24346 0.0046,1.30367 0.744935,2.65807 0.744935,3.18694 0,0.83437 -0.241134,1.19661 -0.142775,1.72846 0.104344,0.56439 0.208788,1.12884 0.208788,2.00925 h -0.617339 c 0,-0.83447 -0.09846,-1.36641 -0.196784,-1.89836 -0.104343,-0.56425 -0.208788,-1.12874 -0.208788,-2.00914 0,-1.18593 -0.399555,-1.9349 -0.403026,-2.904 -0.0046,-1.30453 0.386887,-2.83558 0.386887,-3.35661 0,-0.79934 -0.198636,-1.28392 -0.397108,-1.76841 -0.222745,-0.54348 -0.445426,-1.08694 -0.445426,-2.00233 0,-0.87835 0.22483,-2.12596 0.449559,-3.3735 0.218712,-1.21414 0.154583,-2.48504 0.154583,-3.32145 0,-0.86906 0.425516,-2.107507 0.568028,-3.402378 0.140063,-1.272844 0.280226,-2.545786 0.280226,-3.391495 0,-0.84713 -0.441952,-1.32338 -0.487791,-1.743107 -0.04819,-0.441955 -0.09647,-0.883973 -0.09647,-1.751642 0,-0.913109 0.23419,-1.501211 0.46828,-2.089282 0.211037,-0.530556 0.818454,-1.004557 0.818454,-1.806112 0,-0.830726 -0.219768,-1.970617 -0.439306,-3.110442 -0.225592,-1.171011 -0.451313,-2.342158 -0.451313,-3.226131 z"
         style="display:inline;fill:#bdbda6;fill-opacity:0.5;fill-rule:nonzero;stroke:none;stroke-width:0.264583"
         id="path1092" />
      <path
         inkscape:connector-curvature="0"
         d="m 71.496684,80.493641 c 0,0.823617 -0.285848,2.303563 -0.0072,3.501099 0.287073,1.233752 1.1387,2.185326 1.1387,3.076509 0,0.936858 -0.303379,1.472142 -0.606756,2.007362 -0.262302,0.462854 -0.524703,0.925809 -0.524703,1.703652 0,0.782241 0.10481,0.983787 0.209616,1.185069 0.139767,0.268618 0.609005,0.584364 0.609005,1.516888 0,0.877128 -0.547785,2.322282 -0.766233,3.814299 -0.214776,1.467282 -0.429649,2.934761 -0.429649,3.772331 0,0.83231 0.242258,2.10767 0.48432,3.38296 0.248245,1.30688 0.49639,2.61395 0.49639,3.49631 0,0.9091 -0.159941,1.35817 -0.319847,1.80713 -0.141751,0.39817 -0.707001,0.70247 -0.707001,1.50806 0,0.83549 0.591312,2.03908 0.75919,3.14851 0.171482,1.13334 1.095671,2.31385 1.095671,3.19303 0,0.89951 -0.646112,1.42001 -0.821827,2.03438 -0.163777,0.57222 -0.609635,1.19165 -0.609635,2.0068 h -0.617339 c 0,-0.89962 0.175784,-1.51415 0.351565,-2.12858 0.163579,-0.57216 0.515509,-1.09746 0.515509,-1.9126 0,-0.83549 -0.309099,-1.99209 -0.476977,-3.10145 -0.171485,-1.13334 -0.766432,-2.26679 -0.766432,-3.14596 0,-0.90918 0.536244,-1.35817 0.696119,-1.80714 0.141816,-0.39823 0.283665,-0.79659 0.283665,-1.60218 0,-0.83242 -0.759651,-2.10768 -1.001811,-3.38297 -0.248047,-1.30697 0.02119,-2.61395 0.02119,-3.4963 0,-0.87733 0.453663,-2.181391 0.672076,-3.673408 0.214808,-1.467282 0.429684,-2.840535 0.429684,-3.678105 0,-0.782342 -0.340157,-1.266 -0.444963,-1.46738 -0.139766,-0.268684 -0.655969,-0.490307 -0.655969,-1.42273 0,-0.936956 0.679715,-1.519238 0.98306,-2.054458 0.262334,-0.462822 0.524833,-0.925875 0.524833,-1.70352 0,-0.82378 -0.607978,-1.833263 -0.886685,-3.030736 -0.28706,-1.23385 -0.244859,-2.655853 -0.244859,-3.546872 z"
         style="display:inline;fill:#bdbda6;fill-opacity:0.5;fill-rule:nonzero;stroke:none;stroke-width:0.264583"
         id="path1094" />
      <path
         inkscape:connector-curvature="0"
         d="m 87.58474,80.493641 c 0,0.809824 0.319683,1.759514 0.639267,2.709104 0.336482,0.999759 0.955972,2.056143 0.955972,2.961084 0,0.921676 -0.624351,1.635125 -0.965632,2.405062 -0.314788,0.710174 -0.629607,1.420315 -0.629607,2.213372 0,0.978826 0.715698,1.655331 0.715698,2.654895 0,0.877226 -0.444863,2.369344 -0.663213,3.861361 -0.214775,1.467282 -0.429649,2.934761 -0.429649,3.772331 0,0.86476 -0.369755,2.22432 -0.456573,3.35756 -0.08559,1.1176 0.111755,2.00888 0.111755,2.85899 0,0.81535 0.17327,1.38112 0.346504,1.94674 0.18769,0.61301 0.375478,1.22594 0.375478,2.1253 0,0.83542 0.16801,1.94495 0.335822,3.05438 0.171548,1.13334 0.343099,2.26679 0.343099,3.14596 0,0.89962 -0.175784,1.51405 -0.351465,2.12851 -0.163777,0.57223 -0.327456,1.14459 -0.327456,1.95974 h -0.617339 c 0,-0.89962 0.175784,-1.51415 0.351565,-2.12858 0.163679,-0.57216 -0.238522,-1.03134 -0.238522,-1.84643 0,-0.83558 0.73746,-1.60555 0.56955,-2.71489 -0.171485,-1.13344 -0.343032,-2.6629 -0.343032,-3.54217 0,-0.81541 -0.512829,-1.43775 -0.686065,-2.00333 -0.18769,-0.61294 -0.375478,-1.22598 -0.375478,-2.12523 0,-0.86476 0.08682,-1.9981 0.173633,-3.13124 0.08559,-1.1176 0.171185,-2.23537 0.171185,-3.08531 0,-0.87733 0.444831,-2.199745 0.663279,-3.691797 0.214775,-1.467281 0.203266,-3.104422 0.203266,-3.941895 0,-0.97886 -0.489381,-1.655333 -0.489381,-2.654895 0,-0.921843 0.341444,-1.691812 0.682791,-2.461784 0.314688,-0.710075 0.62951,-1.420217 0.62951,-2.213271 0,-0.80989 -0.319683,-1.75958 -0.639268,-2.709169 -0.336483,-0.99976 -0.673033,-1.999523 -0.673033,-2.904398 z"
         style="display:inline;fill:#d1d1b8;fill-opacity:0.5;fill-rule:nonzero;stroke:none;stroke-width:0.264583"
         id="path1096" />
      <path
         inkscape:connector-curvature="0"
         d="m 69.410281,80.493641 c 0,0.829337 0.279466,2.029984 0.558733,3.230465 0.286412,1.230741 0.572823,2.461583 0.572823,3.347143 0,0.923629 -0.300005,1.452862 -0.599911,1.98206 -0.265774,0.468842 -0.531645,0.937882 -0.531645,1.728954 0,0.857978 0.253206,1.402292 0.224234,1.85248 -0.02801,0.434711 -0.338336,0.775592 -0.338336,1.632181 0,0.851265 -0.771856,2.133105 -0.838136,3.414945 -0.06515,1.262724 0.575071,2.525451 0.575071,3.388981 0,0.83651 0.05457,2.20864 0.297194,3.48645 0.247583,1.30436 1.153882,2.60879 1.153882,3.48694 0,0.90048 -0.628782,1.25118 -0.787236,1.69595 -0.143238,0.40236 -0.286676,0.80493 -0.286676,1.61925 0,0.83896 0.168275,1.95047 0.336452,3.06195 0.171283,1.1313 0.342469,2.26269 0.342469,3.13839 0,0.89261 -0.174758,1.50366 -0.34948,2.11445 -0.164637,0.5757 -0.329441,1.1516 -0.329441,1.9738 h -0.514416 c 0,-0.89258 0.174858,-1.50357 0.349514,-2.11452 0.164703,-0.57574 0.47053,-0.86936 0.47053,-1.69145 0,-0.83906 -0.121245,-2.13873 -0.289422,-3.25021 -0.171186,-1.13129 -0.765837,-2.35677 -0.765837,-3.23241 0,-0.90058 0.393668,-1.34531 0.551987,-1.79007 0.143338,-0.40247 0.380836,-0.75797 0.380836,-1.57219 0,-0.83661 -0.336748,-2.16158 -0.579472,-3.43949 -0.247615,-1.30436 -0.4953,-2.60879 -0.4953,-3.48684 0,-0.85136 -0.357087,-2.133303 -0.290809,-3.415043 0.06515,-1.262724 0.553871,-2.525448 0.553871,-3.388883 0,-0.858176 0.405376,-1.214337 0.434348,-1.664428 0.02805,-0.43471 -0.320246,-0.963644 -0.320246,-1.820233 0,-0.923827 0.300006,-1.452959 0.600009,-1.98216 0.265676,-0.46894 0.531548,-0.937882 0.531548,-1.728854 0,-0.829402 -0.279366,-2.030047 -0.558734,-3.230528 -0.286412,-1.230842 -0.572823,-2.461683 -0.572823,-3.34708 h 0.514416 z"
         style="display:inline;fill:#bdbda6;fill-opacity:0.5;fill-rule:nonzero;stroke:none;stroke-width:0.264583"
         id="path1098" />
      <path
         inkscape:connector-curvature="0"
         d="m 68.238571,80.493641 c 0,0.833173 -0.09608,1.950112 0.09009,3.019888 0.190998,1.097526 1.275755,2.242114 1.275755,3.123737 0,0.900941 -0.759651,1.413206 -0.954913,2.066364 -0.181901,0.608905 -0.12872,1.594213 -0.12872,2.407873 0,0.871042 -0.36853,1.296757 -0.454885,2.051513 -0.08381,0.733623 -0.167714,1.467215 -0.167714,2.310871 0,0.733591 -0.339095,1.626163 -0.348853,2.659758 -0.0086,0.907619 0.312111,1.957225 0.312111,2.937205 0,0.83231 0.242125,2.10767 0.484187,3.38296 0.24828,1.30688 0.778703,2.33174 0.778703,3.21413 0,0.90911 -0.254066,1.73447 -0.413909,2.18334 -0.141848,0.39826 -0.47185,0.70247 -0.47185,1.50816 0,0.83542 -0.0673,1.94495 0.100608,3.05438 0.171548,1.13334 0.578345,2.26679 0.578345,3.14596 0,0.89962 -0.175781,1.51405 -0.351565,2.12851 -0.163677,0.57223 -0.327388,1.14459 -0.327388,1.95974 h -0.617339 c 0,-0.89962 0.175781,-1.51415 0.351565,-2.12858 0.163677,-0.57216 0.327388,-1.14452 0.327388,-1.95967 0,-0.83549 -0.168011,-1.94502 -0.33592,-3.05438 -0.17145,-1.13334 -0.343033,-2.26679 -0.343033,-3.14596 0,-0.90918 0.159941,-1.35817 0.319781,-1.80714 0.141851,-0.39823 0.283699,-0.79659 0.283699,-1.60218 0,-0.83242 -0.05401,-2.10768 -0.296166,-3.38297 -0.248148,-1.30697 -0.449263,-2.47282 -0.449263,-3.35521 0,-0.73481 -0.695788,-1.955636 -0.686033,-2.989131 0.0086,-0.907388 0.769774,-1.626658 0.769774,-2.607733 0,-0.871241 -0.195858,-1.767186 -0.109604,-2.522074 0.08391,-0.733491 0.450088,-1.137941 0.450088,-1.981499 0,-0.901039 -0.08698,-1.883635 0.108183,-2.536891 0.181901,-0.608905 0.646144,-1.264873 0.646144,-2.078533 0,-0.833141 -0.468476,-1.856052 -0.654579,-2.925828 -0.191061,-1.097526 -0.382024,-2.19505 -0.382024,-3.07661 h 0.617339 z"
         style="display:inline;fill:#d1d1b8;fill-opacity:0.5;fill-rule:nonzero;stroke:none;stroke-width:0.264583"
         id="path1100" />
      <path
         inkscape:connector-curvature="0"
         d="m 66.747876,80.493641 c 0,0.84799 0.09346,1.66079 0.186929,2.473325 0.09515,0.826691 0.472479,1.653382 0.472479,2.52009 0,0.862973 -1.129935,1.859823 -1.225021,2.762549 -0.09356,0.887413 0.377429,1.68093 0.377429,2.532658 0,0.876067 0.04445,1.611741 -0.09918,2.347481 -0.139668,0.714939 -0.279368,1.430073 -0.279368,2.268771 0,0.864822 -0.423365,1.798669 -0.376402,2.779479 0.04772,0.997876 0.565976,2.043016 0.565976,2.892856 0,0.84018 0.281054,1.896 0.467982,2.95163 0.190137,1.07391 0.568589,2.14782 0.568589,3.0224 0,0.86962 -0.18964,1.66902 -0.285088,2.32734 -0.09307,0.64151 -0.37432,1.14197 -0.37432,1.98722 0,0.84279 0.16854,1.95629 0.337013,3.06956 0.170921,1.12941 0.341908,2.25901 0.341908,3.13078 0,0.88556 -0.17373,1.49308 -0.347429,2.10036 -0.165762,0.57931 -0.331492,1.15868 -0.331492,1.98789 H 66.33629 c 0,-0.88557 0.03264,-1.44599 0.206441,-2.0534 0.165661,-0.57927 0.09621,-1.20564 0.09621,-2.03485 0,-0.84289 0.207733,-1.95629 0.03926,-3.06966 -0.170889,-1.12941 -0.341908,-2.25881 -0.341908,-3.13068 0,-0.86962 0.09555,-1.52794 0.191096,-2.18625 0.09307,-0.64152 0.186166,-1.28317 0.186166,-2.12832 0,-0.84008 -0.187026,-1.8959 -0.374055,-2.95172 -0.190135,-1.07381 -0.380338,-2.14772 -0.380338,-3.0223 0,-0.86496 -0.4234,-1.798804 -0.470263,-2.779614 -0.04782,-0.997876 0.280689,-2.04288 0.280689,-2.892721 0,-0.876202 0.143734,-1.611842 0.287438,-2.347616 0.139599,-0.714936 -0.003,-1.382978 -0.003,-2.221672 0,-0.862973 -0.187126,-1.718834 -0.09204,-2.62146 0.09346,-0.887413 1.033661,-1.774957 1.033661,-2.626683 0,-0.848056 -0.37574,-1.754883 -0.469204,-2.567517 -0.09506,-0.826592 -0.190249,-1.653283 -0.190249,-2.519926 h 0.411591 z"
         style="display:inline;fill:#bdbda6;fill-opacity:0.5;fill-rule:nonzero;stroke:none;stroke-width:0.264583"
         id="path1102" />
      <path
         inkscape:connector-curvature="0"
         d="m 65.163684,80.493641 c 0,0.84799 0.09346,1.66079 0.186928,2.473325 0.09505,0.826691 0.519475,1.700446 0.519475,2.567155 0,0.86297 -0.941816,1.483518 -1.036868,2.38621 -0.0935,0.887445 0.09525,1.774989 0.09525,2.626683 0,0.876102 0.09138,1.84699 -0.05222,2.58273 -0.139602,0.714939 -0.467553,1.194859 -0.467553,2.033522 0,0.864957 0.235215,2.080982 0.28221,3.061692 0.04769,0.997976 0.09552,1.996052 0.09552,2.845892 0,0.8132 -0.01932,1.92064 -0.03853,3.02792 -0.01836,1.06006 -0.03684,2.12028 -0.03684,3.02158 0,0.84376 0.11109,1.46361 0.222282,2.08329 0.115027,0.64238 0.08917,1.33172 0.08917,2.20286 0,0.84273 0.30966,1.90923 0.478102,3.0225 0.171019,1.12941 0.577154,2.30597 0.577154,3.17784 0,0.88556 -0.408948,1.44602 -0.582679,2.0533 -0.165729,0.57931 -0.33139,1.15868 -0.33139,1.98788 h -0.41156 c 0,-0.88556 0.173699,-1.49304 0.34743,-2.10036 0.165764,-0.57937 0.331491,-1.15867 0.331491,-1.98788 0,-0.84289 -0.168574,-1.9563 -0.337111,-3.06966 -0.170921,-1.12941 -0.34181,-2.25881 -0.34181,-3.13068 0,-0.84376 -0.111191,-1.46361 -0.222284,-2.0834 -0.115126,-0.64228 -0.418502,-1.28465 -0.418502,-2.15569 0,-0.81346 -0.02785,-1.82662 -0.0085,-2.9339 0.01844,-1.06005 0.272058,-2.2142 0.272058,-3.1156 0,-0.86496 0.04706,-1.798804 1.99e-4,-2.779614 -0.04782,-0.997876 -0.189675,-2.04288 -0.189675,-2.892721 0,-0.876202 0.143735,-1.611842 0.287338,-2.347616 0.139602,-0.714936 0.2794,-1.430039 0.2794,-2.268636 0,-0.863071 -0.422342,-2.00111 -0.32729,-2.903736 0.09346,-0.887513 0.704421,-1.539843 0.704421,-2.391471 0,-0.848055 -0.09346,-1.660855 -0.187028,-2.473489 -0.09506,-0.826592 -0.190117,-1.653283 -0.190117,-2.519926 z"
         style="display:inline;fill:#d1d1b8;fill-opacity:0.5;fill-rule:nonzero;stroke:none;stroke-width:0.264583"
         id="path1104" />
    </g>
    <g
       id="g70137"
       transform="translate(90.563161,-3.8647805)">
      <rect
         style="fill:#b58863;fill-opacity:1;stroke:none;stroke-width:0.923672;stroke-miterlimit:4;stroke-dasharray:none"
         id="rect3243"
         width="30.060198"
         height="30.060198"
         x="-15.644804"
         y="55.93079" />
      <rect
         style="fill:#b58863;fill-opacity:1;stroke:none;stroke-width:0.923672;stroke-miterlimit:4;stroke-dasharray:none"
         id="rect6837"
         width="30.060198"
         height="30.060198"
         x="14.415392"
         y="85.990982" />
      <rect
         style="fill:#f0d9b5;fill-opacity:1;stroke:none;stroke-width:0.923672;stroke-miterlimit:4;stroke-dasharray:none"
         id="rect6839"
         width="30.060198"
         height="30.060198"
         x="14.415394"
         y="55.93079" />
      <path
         d="m 29.445492,89.81577 c -1.593057,0 -2.883361,1.290306 -2.883361,2.883363 0,0.641547 0.209046,1.232636 0.562256,1.715599 -1.405638,0.80734 -2.364356,2.313899 -2.364356,4.051122 0,1.463308 0.677589,2.768026 1.737226,3.625826 -2.162521,0.76409 -5.341428,4.00067 -5.341428,9.70972 h 16.579328 c 0,-5.70905 -3.178907,-8.94563 -5.341428,-9.70972 1.059636,-0.8578 1.737225,-2.162518 1.737225,-3.625826 0,-1.737223 -0.958718,-3.243782 -2.364355,-4.051122 0.353212,-0.482963 0.562255,-1.074052 0.562255,-1.715599 0,-1.593057 -1.290303,-2.883363 -2.883362,-2.883363 z"
         fill="#ffffff"
         stroke="#000000"
         stroke-width="4.08665"
         stroke-linecap="round"
         id="path21"
         style="stroke-width:1;stroke-miterlimit:4;stroke-dasharray:none" />
      <rect
         style="fill:#f0d9b5;fill-opacity:1;stroke:none;stroke-width:0.923672;stroke-miterlimit:4;stroke-dasharray:none"
         id="rect9066"
         width="30.060198"
         height="30.060198"
         x="-15.644806"
         y="85.990982" />
      <circle
         style="fill:none;fill-opacity:1;stroke:#14b212;stroke-width:1.72958;stroke-miterlimit:4;stroke-dasharray:none;stroke-opacity:0.66"
         id="path9090"
         cx="29.445494"
         cy="70.960892"
         r="12.499666" />
      <g
         id="g52171"
         transform="translate(50.353314,-1.2643898)">
        <g
           id="path21533">
          <path
             style="color:#000000;fill:#40b932;fill-opacity:0.49158;stroke-width:4;stroke-linecap:round;-inkscape-stroke:none"
             d="M -20.787348,102.98993 V 86.733079"
             id="path57539" />
          <path
             style="color:#000000;fill:#40b932;fill-opacity:0.66;stroke-linecap:round;-inkscape-stroke:none"
             d="m -22.787109,86.730994 v 16.257796 c 0,1.10457 0.895431,2 2,2 1.104569,0 2,-0.89543 2,-2 V 86.730994 Z"
             id="path57541"
             sodipodi:nodetypes="cssscc" />
        </g>
        <path
           style="fill:#40b932;fill-opacity:0.66;stroke:none;stroke-width:0.265;stroke-linecap:butt;stroke-linejoin:bevel;stroke-miterlimit:4;stroke-dasharray:none;stroke-opacity:0.467244"
           d="m -20.787348,86.733077 h 9.64647 l -9.753124,-14.779704 -9.536954,14.683129 z"
           id="path39198"
           sodipodi:nodetypes="ccccc" />
      </g>
      <g
         fill="none"
         fill-rule="evenodd"
         stroke="#000000"
         stroke-width="1.5"
         stroke-linecap="round"
         stroke-linejoin="round"
         id="g69856"
         transform="matrix(0.68036747,0,0,0.68036747,-15.592741,55.312437)">
        <path
           d="m 22,10 c 10.5,1 16.5,8 16,29 H 15 c 0,-9 10,-6.5 8,-21"
           fill="#ffffff"
           id="path69850" />
        <path
           d="m 24,18 c 0.38,2.91 -5.55,7.37 -8,9 -3,2 -2.82,4.34 -5,4 -1.042,-0.94 1.41,-3.04 0,-3 -1,0 0.19,1.23 -1,2 -1,0 -4.003,1 -4,-4 0,-2 6,-12 6,-12 0,0 1.89,-1.9 2,-3.5 -0.73,-0.994 -0.5,-2 -0.5,-3 1,-1 3,2.5 3,2.5 h 2 c 0,0 0.78,-1.992 2.5,-3 1,0 1,3 1,3"
           fill="#ffffff"
           id="path69852" />
        <path
           d="m 9.5,25.5 a 0.5,0.5 0 1 1 -1,0 0.5,0.5 0 1 1 1,0 z m 5.433,-9.75 a 0.5,1.5 30 1 1 -0.866,-0.5 0.5,1.5 30 1 1 0.866,0.5 z"
           fill="#000000"
           id="path69854" />
      </g>
    </g>
    <rect
       style="fill:url(#linearGradient15995);fill-opacity:1;stroke-width:0.417109;stroke-linecap:round;stroke-linejoin:bevel;stroke-opacity:0.66"
       id="rect3646"
       width="2.8361194"
       height="60.084778"
       x="74.918358"
       y="52.06601"
       ry="0" />
    <rect
       style="fill:url(#linearGradient42850);fill-opacity:1;stroke-width:0.417109;stroke-linecap:round;stroke-linejoin:bevel;stroke-opacity:0.66"
       id="rect42848"
       width="2.8361194"
       height="60.084778"
       x="52.06601"
       y="-135.03876"
       ry="0"
       transform="rotate(90)" />
    <rect
       style="fill:url(#linearGradient42854);fill-opacity:1;stroke-width:0.274759;stroke-linecap:round;stroke-linejoin:bevel;stroke-opacity:0.66"
       id="rect42852"
       width="1.2306342"
       height="60.084778"
       x="-135.03876"
       y="52.10162"
       ry="0"
       transform="scale(-1,1)" />
    <rect
       style="fill:url(#linearGradient42858);fill-opacity:1;stroke-width:0.274759;stroke-linecap:round;stroke-linejoin:bevel;stroke-opacity:0.66"
       id="rect42856"
       width="1.2306342"
       height="60.084778"
       x="-112.18639"
       y="-135.03876"
       ry="0"
       transform="matrix(0,-1,-1,0,0,0)" />
  </g>
</svg>
